G04 #@! TF.GenerationSoftware,KiCad,Pcbnew,9.0.0*
G04 #@! TF.CreationDate,2025-10-02T18:22:05-07:00*
G04 #@! TF.ProjectId,sweatyHands_sch,73776561-7479-4486-916e-64735f736368,rev?*
G04 #@! TF.SameCoordinates,Original*
G04 #@! TF.FileFunction,Legend,Bot*
G04 #@! TF.FilePolarity,Positive*
%FSLAX46Y46*%
G04 Gerber Fmt 4.6, Leading zero omitted, Abs format (unit mm)*
G04 Created by KiCad (PCBNEW 9.0.0) date 2025-10-02 18:22:05*
%MOMM*%
%LPD*%
G01*
G04 APERTURE LIST*
%ADD10C,0.508000*%
%ADD11C,1.701800*%
%ADD12C,3.352800*%
%ADD13C,1.752600*%
%ADD14C,1.828800*%
%ADD15O,2.500000X5.000000*%
%ADD16O,2.250000X4.500000*%
%ADD17O,4.500000X2.250000*%
%ADD18C,0.800000*%
%ADD19C,6.400000*%
%ADD20C,0.499999*%
%ADD21R,1.700000X1.700000*%
%ADD22O,1.700000X1.700000*%
%ADD23O,1.800000X0.900000*%
%ADD24O,1.500000X0.900000*%
%ADD25C,0.600000*%
G04 APERTURE END LIST*
D10*
X136016500Y-130837300D02*
G75*
G02*
X135254500Y-130837300I-381000J0D01*
G01*
X135254500Y-130837300D02*
G75*
G02*
X136016500Y-130837300I381000J0D01*
G01*
X149769700Y-141390000D02*
G75*
G02*
X149007700Y-141390000I-381000J0D01*
G01*
X149007700Y-141390000D02*
G75*
G02*
X149769700Y-141390000I381000J0D01*
G01*
X144409550Y-143873500D02*
G75*
G02*
X143647550Y-143873500I-381000J0D01*
G01*
X143647550Y-143873500D02*
G75*
G02*
X144409550Y-143873500I381000J0D01*
G01*
X134309550Y-143773500D02*
G75*
G02*
X133547550Y-143773500I-381000J0D01*
G01*
X133547550Y-143773500D02*
G75*
G02*
X134309550Y-143773500I381000J0D01*
G01*
%LPC*%
D11*
X135635500Y-126417700D03*
X135635500Y-123928500D03*
X135635500Y-121439300D03*
D12*
X128625100Y-128322700D03*
X128625100Y-119534300D03*
D13*
X154790000Y-141390000D03*
X159790000Y-141390000D03*
X164790000Y-141390000D03*
D14*
X144028550Y-141816100D03*
X144028550Y-136736100D03*
X133928550Y-141716100D03*
X133928550Y-136636100D03*
D15*
X190900000Y-126499999D03*
D16*
X196900000Y-126499999D03*
D17*
X193900000Y-121799999D03*
D18*
X192900000Y-141300000D03*
X193602944Y-139602944D03*
X193602944Y-142997056D03*
X195300000Y-138900000D03*
D19*
X195300000Y-141300000D03*
D18*
X195300000Y-143700000D03*
X196997056Y-139602944D03*
X196997056Y-142997056D03*
X197700000Y-141300000D03*
D20*
X184750000Y-112700000D03*
X186050000Y-112700000D03*
X187350000Y-112700000D03*
X184750000Y-111399998D03*
X186050000Y-111399998D03*
X187350000Y-111399998D03*
D21*
X128300000Y-97120000D03*
D22*
X130840000Y-97120000D03*
X128300000Y-99660000D03*
X130840000Y-99660000D03*
X128300000Y-102200000D03*
X130840000Y-102200000D03*
X128300000Y-104740000D03*
X130840000Y-104740000D03*
X128300000Y-107280000D03*
X130840000Y-107280000D03*
X128300000Y-109820000D03*
X130840000Y-109820000D03*
D18*
X119300000Y-48800000D03*
X120002944Y-47102944D03*
X120002944Y-50497056D03*
X121700000Y-46400000D03*
D19*
X121700000Y-48800000D03*
D18*
X121700000Y-51200000D03*
X123397056Y-47102944D03*
X123397056Y-50497056D03*
X124100000Y-48800000D03*
D23*
X197140000Y-69110000D03*
D24*
X192820000Y-67840000D03*
D25*
X193290000Y-66690000D03*
X193290000Y-59690000D03*
D24*
X192820000Y-58540000D03*
D23*
X197140000Y-57270000D03*
D21*
X195350000Y-77210000D03*
D22*
X195350000Y-79750000D03*
X195350000Y-82290000D03*
X195350000Y-84830000D03*
D18*
X119300000Y-141300000D03*
X120002944Y-139602944D03*
X120002944Y-142997056D03*
X121700000Y-138900000D03*
D19*
X121700000Y-141300000D03*
D18*
X121700000Y-143700000D03*
X123397056Y-139602944D03*
X123397056Y-142997056D03*
X124100000Y-141300000D03*
X192900000Y-48800000D03*
X193602944Y-47102944D03*
X193602944Y-50497056D03*
X195300000Y-46400000D03*
D19*
X195300000Y-48800000D03*
D18*
X195300000Y-51200000D03*
X196997056Y-47102944D03*
X196997056Y-50497056D03*
X197700000Y-48800000D03*
%LPD*%
M02*
