G04 #@! TF.GenerationSoftware,KiCad,Pcbnew,9.0.0*
G04 #@! TF.CreationDate,2025-10-02T18:22:05-07:00*
G04 #@! TF.ProjectId,sweatyHands_sch,73776561-7479-4486-916e-64735f736368,rev?*
G04 #@! TF.SameCoordinates,Original*
G04 #@! TF.FileFunction,Copper,L1,Top*
G04 #@! TF.FilePolarity,Positive*
%FSLAX46Y46*%
G04 Gerber Fmt 4.6, Leading zero omitted, Abs format (unit mm)*
G04 Created by KiCad (PCBNEW 9.0.0) date 2025-10-02 18:22:05*
%MOMM*%
%LPD*%
G01*
G04 APERTURE LIST*
G04 Aperture macros list*
%AMRoundRect*
0 Rectangle with rounded corners*
0 $1 Rounding radius*
0 $2 $3 $4 $5 $6 $7 $8 $9 X,Y pos of 4 corners*
0 Add a 4 corners polygon primitive as box body*
4,1,4,$2,$3,$4,$5,$6,$7,$8,$9,$2,$3,0*
0 Add four circle primitives for the rounded corners*
1,1,$1+$1,$2,$3*
1,1,$1+$1,$4,$5*
1,1,$1+$1,$6,$7*
1,1,$1+$1,$8,$9*
0 Add four rect primitives between the rounded corners*
20,1,$1+$1,$2,$3,$4,$5,0*
20,1,$1+$1,$4,$5,$6,$7,0*
20,1,$1+$1,$6,$7,$8,$9,0*
20,1,$1+$1,$8,$9,$2,$3,0*%
G04 Aperture macros list end*
G04 #@! TA.AperFunction,Conductor*
%ADD10C,0.200000*%
G04 #@! TD*
G04 #@! TA.AperFunction,SMDPad,CuDef*
%ADD11RoundRect,0.237500X-0.250000X-0.237500X0.250000X-0.237500X0.250000X0.237500X-0.250000X0.237500X0*%
G04 #@! TD*
G04 #@! TA.AperFunction,ComponentPad*
%ADD12C,1.701800*%
G04 #@! TD*
G04 #@! TA.AperFunction,ComponentPad*
%ADD13C,3.352800*%
G04 #@! TD*
G04 #@! TA.AperFunction,SMDPad,CuDef*
%ADD14R,1.003300X0.558800*%
G04 #@! TD*
G04 #@! TA.AperFunction,SMDPad,CuDef*
%ADD15R,1.450000X0.955600*%
G04 #@! TD*
G04 #@! TA.AperFunction,SMDPad,CuDef*
%ADD16R,0.955600X1.450000*%
G04 #@! TD*
G04 #@! TA.AperFunction,ComponentPad*
%ADD17C,1.752600*%
G04 #@! TD*
G04 #@! TA.AperFunction,ComponentPad*
%ADD18C,1.828800*%
G04 #@! TD*
G04 #@! TA.AperFunction,ComponentPad*
%ADD19O,2.500000X5.000000*%
G04 #@! TD*
G04 #@! TA.AperFunction,ComponentPad*
%ADD20O,2.250000X4.500000*%
G04 #@! TD*
G04 #@! TA.AperFunction,ComponentPad*
%ADD21O,4.500000X2.250000*%
G04 #@! TD*
G04 #@! TA.AperFunction,ComponentPad*
%ADD22C,0.800000*%
G04 #@! TD*
G04 #@! TA.AperFunction,ComponentPad*
%ADD23C,6.400000*%
G04 #@! TD*
G04 #@! TA.AperFunction,SMDPad,CuDef*
%ADD24RoundRect,0.237500X-0.237500X0.300000X-0.237500X-0.300000X0.237500X-0.300000X0.237500X0.300000X0*%
G04 #@! TD*
G04 #@! TA.AperFunction,SMDPad,CuDef*
%ADD25R,1.727200X0.609600*%
G04 #@! TD*
G04 #@! TA.AperFunction,SMDPad,CuDef*
%ADD26R,0.599999X1.450000*%
G04 #@! TD*
G04 #@! TA.AperFunction,SMDPad,CuDef*
%ADD27R,3.099999X2.400000*%
G04 #@! TD*
G04 #@! TA.AperFunction,ComponentPad*
%ADD28C,0.499999*%
G04 #@! TD*
G04 #@! TA.AperFunction,SMDPad,CuDef*
%ADD29RoundRect,0.237500X0.237500X-0.300000X0.237500X0.300000X-0.237500X0.300000X-0.237500X-0.300000X0*%
G04 #@! TD*
G04 #@! TA.AperFunction,SMDPad,CuDef*
%ADD30RoundRect,0.237500X0.237500X-0.250000X0.237500X0.250000X-0.237500X0.250000X-0.237500X-0.250000X0*%
G04 #@! TD*
G04 #@! TA.AperFunction,ComponentPad*
%ADD31R,1.700000X1.700000*%
G04 #@! TD*
G04 #@! TA.AperFunction,ComponentPad*
%ADD32O,1.700000X1.700000*%
G04 #@! TD*
G04 #@! TA.AperFunction,SMDPad,CuDef*
%ADD33RoundRect,0.237500X-0.237500X0.250000X-0.237500X-0.250000X0.237500X-0.250000X0.237500X0.250000X0*%
G04 #@! TD*
G04 #@! TA.AperFunction,SMDPad,CuDef*
%ADD34RoundRect,0.072500X0.532500X0.217500X-0.532500X0.217500X-0.532500X-0.217500X0.532500X-0.217500X0*%
G04 #@! TD*
G04 #@! TA.AperFunction,SMDPad,CuDef*
%ADD35RoundRect,0.237500X-0.300000X-0.237500X0.300000X-0.237500X0.300000X0.237500X-0.300000X0.237500X0*%
G04 #@! TD*
G04 #@! TA.AperFunction,SMDPad,CuDef*
%ADD36RoundRect,0.237500X0.300000X0.237500X-0.300000X0.237500X-0.300000X-0.237500X0.300000X-0.237500X0*%
G04 #@! TD*
G04 #@! TA.AperFunction,SMDPad,CuDef*
%ADD37R,0.812800X0.889000*%
G04 #@! TD*
G04 #@! TA.AperFunction,SMDPad,CuDef*
%ADD38R,1.905000X0.889000*%
G04 #@! TD*
G04 #@! TA.AperFunction,SMDPad,CuDef*
%ADD39RoundRect,0.500000X-0.500000X-0.500000X0.500000X-0.500000X0.500000X0.500000X-0.500000X0.500000X0*%
G04 #@! TD*
G04 #@! TA.AperFunction,SMDPad,CuDef*
%ADD40RoundRect,0.250000X0.450000X-0.325000X0.450000X0.325000X-0.450000X0.325000X-0.450000X-0.325000X0*%
G04 #@! TD*
G04 #@! TA.AperFunction,SMDPad,CuDef*
%ADD41R,0.800000X0.500000*%
G04 #@! TD*
G04 #@! TA.AperFunction,HeatsinkPad*
%ADD42O,1.800000X0.900000*%
G04 #@! TD*
G04 #@! TA.AperFunction,HeatsinkPad*
%ADD43O,1.500000X0.900000*%
G04 #@! TD*
G04 #@! TA.AperFunction,SMDPad,CuDef*
%ADD44RoundRect,0.200000X0.500000X-0.200000X0.500000X0.200000X-0.500000X0.200000X-0.500000X-0.200000X0*%
G04 #@! TD*
G04 #@! TA.AperFunction,SMDPad,CuDef*
%ADD45RoundRect,0.075000X0.625000X-0.075000X0.625000X0.075000X-0.625000X0.075000X-0.625000X-0.075000X0*%
G04 #@! TD*
G04 #@! TA.AperFunction,SMDPad,CuDef*
%ADD46RoundRect,0.237500X0.250000X0.237500X-0.250000X0.237500X-0.250000X-0.237500X0.250000X-0.237500X0*%
G04 #@! TD*
G04 #@! TA.AperFunction,SMDPad,CuDef*
%ADD47R,0.900000X1.500000*%
G04 #@! TD*
G04 #@! TA.AperFunction,SMDPad,CuDef*
%ADD48RoundRect,0.250000X0.475000X-0.337500X0.475000X0.337500X-0.475000X0.337500X-0.475000X-0.337500X0*%
G04 #@! TD*
G04 #@! TA.AperFunction,SMDPad,CuDef*
%ADD49RoundRect,0.250000X-0.450000X0.325000X-0.450000X-0.325000X0.450000X-0.325000X0.450000X0.325000X0*%
G04 #@! TD*
G04 #@! TA.AperFunction,SMDPad,CuDef*
%ADD50R,1.400000X1.000000*%
G04 #@! TD*
G04 #@! TA.AperFunction,SMDPad,CuDef*
%ADD51RoundRect,0.218750X0.381250X-0.218750X0.381250X0.218750X-0.381250X0.218750X-0.381250X-0.218750X0*%
G04 #@! TD*
G04 #@! TA.AperFunction,SMDPad,CuDef*
%ADD52RoundRect,0.100000X0.225000X0.100000X-0.225000X0.100000X-0.225000X-0.100000X0.225000X-0.100000X0*%
G04 #@! TD*
G04 #@! TA.AperFunction,HeatsinkPad*
%ADD53R,2.200000X3.000000*%
G04 #@! TD*
G04 #@! TA.AperFunction,SMDPad,CuDef*
%ADD54RoundRect,0.062500X0.350000X0.062500X-0.350000X0.062500X-0.350000X-0.062500X0.350000X-0.062500X0*%
G04 #@! TD*
G04 #@! TA.AperFunction,SMDPad,CuDef*
%ADD55RoundRect,0.062500X0.062500X0.350000X-0.062500X0.350000X-0.062500X-0.350000X0.062500X-0.350000X0*%
G04 #@! TD*
G04 #@! TA.AperFunction,HeatsinkPad*
%ADD56R,2.600000X2.600000*%
G04 #@! TD*
G04 #@! TA.AperFunction,SMDPad,CuDef*
%ADD57RoundRect,0.100000X-0.100000X0.217500X-0.100000X-0.217500X0.100000X-0.217500X0.100000X0.217500X0*%
G04 #@! TD*
G04 #@! TA.AperFunction,SMDPad,CuDef*
%ADD58RoundRect,0.100000X0.100000X-0.225000X0.100000X0.225000X-0.100000X0.225000X-0.100000X-0.225000X0*%
G04 #@! TD*
G04 #@! TA.AperFunction,SMDPad,CuDef*
%ADD59RoundRect,0.050000X0.100000X-0.285000X0.100000X0.285000X-0.100000X0.285000X-0.100000X-0.285000X0*%
G04 #@! TD*
G04 #@! TA.AperFunction,SMDPad,CuDef*
%ADD60RoundRect,0.150000X0.512500X0.150000X-0.512500X0.150000X-0.512500X-0.150000X0.512500X-0.150000X0*%
G04 #@! TD*
G04 #@! TA.AperFunction,SMDPad,CuDef*
%ADD61R,1.193800X1.092200*%
G04 #@! TD*
G04 #@! TA.AperFunction,SMDPad,CuDef*
%ADD62RoundRect,0.237500X-0.287500X-0.237500X0.287500X-0.237500X0.287500X0.237500X-0.287500X0.237500X0*%
G04 #@! TD*
G04 #@! TA.AperFunction,SMDPad,CuDef*
%ADD63R,1.500000X0.900000*%
G04 #@! TD*
G04 #@! TA.AperFunction,SMDPad,CuDef*
%ADD64R,0.900000X0.900000*%
G04 #@! TD*
G04 #@! TA.AperFunction,HeatsinkPad*
%ADD65C,0.600000*%
G04 #@! TD*
G04 #@! TA.AperFunction,HeatsinkPad*
%ADD66R,3.800000X3.800000*%
G04 #@! TD*
G04 #@! TA.AperFunction,ViaPad*
%ADD67C,0.600000*%
G04 #@! TD*
G04 #@! TA.AperFunction,Conductor*
%ADD68C,0.406400*%
G04 #@! TD*
G04 #@! TA.AperFunction,Conductor*
%ADD69C,0.304800*%
G04 #@! TD*
G04 #@! TA.AperFunction,Conductor*
%ADD70C,0.254000*%
G04 #@! TD*
G04 #@! TA.AperFunction,Conductor*
%ADD71C,0.284000*%
G04 #@! TD*
G04 APERTURE END LIST*
D10*
X181200000Y-63000000D02*
X179970000Y-62600000D01*
X178800000Y-63110000D02*
X179970000Y-63600000D01*
D11*
X148495000Y-133440000D03*
X150320000Y-133440000D03*
D12*
X135635500Y-126417700D03*
X135635500Y-123928500D03*
X135635500Y-121439300D03*
D13*
X128625100Y-128322700D03*
X128625100Y-119534300D03*
D14*
X170647450Y-123549999D03*
X170647450Y-124500000D03*
X170647450Y-125450001D03*
X173352550Y-125450001D03*
X173352550Y-124500000D03*
X173352550Y-123549999D03*
X170694900Y-114199998D03*
X170694900Y-115149999D03*
X170694900Y-116100000D03*
X173400000Y-116100000D03*
X173400000Y-115149999D03*
X173400000Y-114199998D03*
D15*
X184050000Y-89877800D03*
X184050000Y-87922200D03*
D16*
X176322200Y-74750000D03*
X178277800Y-74750000D03*
D17*
X154790000Y-141390000D03*
X159790000Y-141390000D03*
X164790000Y-141390000D03*
D18*
X144028550Y-141816100D03*
X144028550Y-136736100D03*
X133928550Y-141716100D03*
X133928550Y-136636100D03*
D19*
X190900000Y-126499999D03*
D20*
X196900000Y-126499999D03*
D21*
X193900000Y-121799999D03*
D22*
X192900000Y-141300000D03*
X193602944Y-139602944D03*
X193602944Y-142997056D03*
X195300000Y-138900000D03*
D23*
X195300000Y-141300000D03*
D22*
X195300000Y-143700000D03*
X196997056Y-139602944D03*
X196997056Y-142997056D03*
X197700000Y-141300000D03*
D24*
X136000000Y-52637500D03*
X136000000Y-54362500D03*
D25*
X163625500Y-123450001D03*
X163625500Y-121549999D03*
X161644300Y-122500000D03*
D26*
X184145000Y-114775000D03*
X185415000Y-114775000D03*
X186685000Y-114775000D03*
X187955000Y-114775000D03*
X187955000Y-109325001D03*
X186685000Y-109325001D03*
X185415000Y-109325001D03*
X184145000Y-109325001D03*
D27*
X186050000Y-112049999D03*
D28*
X184750000Y-112700000D03*
X186050000Y-112700000D03*
X187350000Y-112700000D03*
X184750000Y-111399998D03*
X186050000Y-111399998D03*
X187350000Y-111399998D03*
D29*
X178210000Y-56300000D03*
X178210000Y-54575000D03*
D30*
X165300000Y-63325000D03*
X165300000Y-61500000D03*
D31*
X128300000Y-97120000D03*
D32*
X130840000Y-97120000D03*
X128300000Y-99660000D03*
X130840000Y-99660000D03*
X128300000Y-102200000D03*
X130840000Y-102200000D03*
X128300000Y-104740000D03*
X130840000Y-104740000D03*
X128300000Y-107280000D03*
X130840000Y-107280000D03*
X128300000Y-109820000D03*
X130840000Y-109820000D03*
D33*
X181500000Y-111337499D03*
X181500000Y-113162499D03*
D24*
X137700000Y-52637500D03*
X137700000Y-54362500D03*
D34*
X183905000Y-73700000D03*
X183905000Y-72750000D03*
X183905000Y-71800000D03*
X181395000Y-71800000D03*
X181395000Y-72750000D03*
X181395000Y-73700000D03*
D30*
X186700000Y-118462499D03*
X186700000Y-116637499D03*
D11*
X129587500Y-54600000D03*
X131412500Y-54600000D03*
D35*
X185537500Y-97299999D03*
X187262500Y-97299999D03*
D36*
X138862500Y-57700000D03*
X137137500Y-57700000D03*
D30*
X130900000Y-64212500D03*
X130900000Y-62387500D03*
X166425000Y-121187500D03*
X166425000Y-119362500D03*
X184000000Y-85562500D03*
X184000000Y-83737500D03*
X183400000Y-56312500D03*
X183400000Y-54487500D03*
D33*
X166930000Y-109947500D03*
X166930000Y-111772500D03*
D37*
X173044600Y-109900000D03*
D38*
X171101500Y-109900000D03*
D33*
X191975000Y-80387500D03*
X191975000Y-82212500D03*
D22*
X119300000Y-48800000D03*
X120002944Y-47102944D03*
X120002944Y-50497056D03*
X121700000Y-46400000D03*
D23*
X121700000Y-48800000D03*
D22*
X121700000Y-51200000D03*
X123397056Y-47102944D03*
X123397056Y-50497056D03*
X124100000Y-48800000D03*
D39*
X128000000Y-85900000D03*
X134000000Y-85900000D03*
D25*
X160800000Y-132900002D03*
X160800000Y-131000000D03*
X158818800Y-131950001D03*
D35*
X188237500Y-72950000D03*
X189962500Y-72950000D03*
D29*
X175200000Y-56300000D03*
X175200000Y-54575000D03*
D11*
X173087500Y-81100000D03*
X174912500Y-81100000D03*
D40*
X185450000Y-123774999D03*
X185450000Y-121724999D03*
D25*
X160500000Y-105500002D03*
X160500000Y-103600000D03*
X158518800Y-104550001D03*
D41*
X188317500Y-67535000D03*
X188317500Y-68235000D03*
D30*
X167200000Y-63325000D03*
X167200000Y-61500000D03*
D42*
X197140000Y-69110000D03*
D43*
X192820000Y-67840000D03*
X192820000Y-58540000D03*
D42*
X197140000Y-57270000D03*
D44*
X192040000Y-66690000D03*
X192040000Y-65690000D03*
D45*
X192040000Y-64440000D03*
X192040000Y-63440000D03*
X192040000Y-62940000D03*
X192040000Y-61940000D03*
D44*
X192040000Y-60690000D03*
X192040000Y-59690000D03*
X192040000Y-59690000D03*
X192040000Y-60690000D03*
D45*
X192040000Y-61440000D03*
X192040000Y-62440000D03*
X192040000Y-63940000D03*
X192040000Y-64940000D03*
D44*
X192040000Y-65690000D03*
X192040000Y-66690000D03*
D46*
X165687500Y-133050000D03*
X163862500Y-133050000D03*
D33*
X136200000Y-81287500D03*
X136200000Y-83112500D03*
D29*
X166000000Y-85262500D03*
X166000000Y-83537500D03*
D46*
X187552500Y-61300000D03*
X185727500Y-61300000D03*
D47*
X125500000Y-61550000D03*
X124100000Y-61550000D03*
X125500000Y-58450000D03*
X124100000Y-58450000D03*
D48*
X192125000Y-77037500D03*
X192125000Y-74962500D03*
D33*
X181150000Y-83687500D03*
X181150000Y-85512500D03*
D49*
X186417500Y-66760000D03*
X186417500Y-68810000D03*
D46*
X142912500Y-122500000D03*
X141087500Y-122500000D03*
D50*
X143822500Y-96890000D03*
X143822500Y-98790000D03*
X146022500Y-97840000D03*
D35*
X185587500Y-100199999D03*
X187312500Y-100199999D03*
D46*
X167312500Y-103500000D03*
X165487500Y-103500000D03*
X172512500Y-105600000D03*
X170687500Y-105600000D03*
X151412500Y-97900000D03*
X149587500Y-97900000D03*
D51*
X184150000Y-104112499D03*
X184150000Y-101987499D03*
D52*
X163350000Y-87900000D03*
X163350000Y-87100000D03*
X163350000Y-86300000D03*
X163350000Y-85500000D03*
X160050000Y-85500000D03*
X160050000Y-86300000D03*
X160050000Y-87100000D03*
X160050000Y-87900000D03*
D53*
X161700000Y-86700000D03*
D33*
X192350000Y-94237499D03*
X192350000Y-96062499D03*
D54*
X174937500Y-64350000D03*
X174937500Y-63850000D03*
X174937500Y-63350000D03*
X174937500Y-62850000D03*
X174937500Y-62350000D03*
X174937500Y-61850000D03*
D55*
X174250000Y-61162500D03*
X173750000Y-61162500D03*
X173250000Y-61162500D03*
X172750000Y-61162500D03*
X172250000Y-61162500D03*
X171750000Y-61162500D03*
D54*
X171062500Y-61850000D03*
X171062500Y-62350000D03*
X171062500Y-62850000D03*
X171062500Y-63350000D03*
X171062500Y-63850000D03*
X171062500Y-64350000D03*
D55*
X171750000Y-65037500D03*
X172250000Y-65037500D03*
X172750000Y-65037500D03*
X173250000Y-65037500D03*
X173750000Y-65037500D03*
X174250000Y-65037500D03*
D56*
X173000000Y-63100000D03*
D31*
X195350000Y-77210000D03*
D32*
X195350000Y-79750000D03*
X195350000Y-82290000D03*
X195350000Y-84830000D03*
D24*
X174700000Y-87700000D03*
X174700000Y-89425000D03*
D57*
X173200000Y-58592500D03*
X173200000Y-59407500D03*
D58*
X169000000Y-71210000D03*
X169650000Y-71210000D03*
X170300000Y-71210000D03*
X170300000Y-69310000D03*
X169650000Y-69310000D03*
X169000000Y-69310000D03*
D24*
X170500000Y-87737500D03*
X170500000Y-89462500D03*
D46*
X178162500Y-72750000D03*
X176337500Y-72750000D03*
D59*
X175950000Y-84340000D03*
X176450000Y-84340000D03*
X176950000Y-84340000D03*
X177450000Y-84340000D03*
X177450000Y-82860000D03*
X176950000Y-82860000D03*
X176450000Y-82860000D03*
X175950000Y-82860000D03*
D60*
X181107500Y-64060000D03*
X181107500Y-63110000D03*
X181107500Y-62160000D03*
X178832500Y-62160000D03*
X178832500Y-63110000D03*
X178832500Y-64060000D03*
D30*
X126000000Y-70325000D03*
X126000000Y-68500000D03*
D22*
X119300000Y-141300000D03*
X120002944Y-139602944D03*
X120002944Y-142997056D03*
X121700000Y-138900000D03*
D23*
X121700000Y-141300000D03*
D22*
X121700000Y-143700000D03*
X123397056Y-139602944D03*
X123397056Y-142997056D03*
X124100000Y-141300000D03*
D29*
X186650000Y-106412499D03*
X186650000Y-104687499D03*
D61*
X185100000Y-128637099D03*
X185100000Y-131862899D03*
D46*
X160912500Y-127300000D03*
X159087500Y-127300000D03*
X172412500Y-136200000D03*
X170587500Y-136200000D03*
D50*
X149600000Y-104850000D03*
X149600000Y-106750000D03*
X151800000Y-105800000D03*
D11*
X163837500Y-131025000D03*
X165662500Y-131025000D03*
D62*
X181725000Y-50000000D03*
X183475000Y-50000000D03*
D63*
X141260000Y-52860000D03*
X141260000Y-54130000D03*
X141260000Y-55400000D03*
X141260000Y-56670000D03*
X141260000Y-57940000D03*
X141260000Y-59210000D03*
X141260000Y-60480000D03*
X141260000Y-61750000D03*
X141260000Y-63020000D03*
X141260000Y-64290000D03*
X141260000Y-65560000D03*
X141260000Y-66830000D03*
X141260000Y-68100000D03*
X141260000Y-69370000D03*
D47*
X144300000Y-70620000D03*
X145570000Y-70620000D03*
X146840000Y-70620000D03*
X148110000Y-70620000D03*
X149380000Y-70620000D03*
X150650000Y-70620000D03*
X151920000Y-70620000D03*
X153190000Y-70620000D03*
X154460000Y-70620000D03*
X155730000Y-70620000D03*
D63*
X158760000Y-69370000D03*
X158760000Y-68100000D03*
X158760000Y-66830000D03*
X158760000Y-65560000D03*
X158760000Y-64290000D03*
X158760000Y-63020000D03*
X158760000Y-61750000D03*
X158760000Y-60480000D03*
X158760000Y-59210000D03*
X158760000Y-57940000D03*
X158760000Y-56670000D03*
X158760000Y-55400000D03*
X158760000Y-54130000D03*
X158760000Y-52860000D03*
D64*
X147110000Y-59180000D03*
D65*
X147110000Y-59880000D03*
D64*
X147110000Y-60580000D03*
D65*
X147110000Y-61280000D03*
D64*
X147110000Y-61980000D03*
D65*
X147810000Y-59180000D03*
X147810000Y-60580000D03*
X147810000Y-61980000D03*
X148485000Y-59880000D03*
X148485000Y-61280000D03*
D64*
X148510000Y-59180000D03*
X148510000Y-60580000D03*
D66*
X148510000Y-60580000D03*
D64*
X148510000Y-61980000D03*
D65*
X149210000Y-59180000D03*
X149210000Y-60580000D03*
X149210000Y-61980000D03*
D64*
X149910000Y-59180000D03*
D65*
X149910000Y-59880000D03*
D64*
X149910000Y-60580000D03*
D65*
X149910000Y-61280000D03*
D64*
X149910000Y-61980000D03*
D29*
X157700000Y-85062500D03*
X157700000Y-83337500D03*
D46*
X187502500Y-65100000D03*
X185677500Y-65100000D03*
X145402500Y-106840000D03*
X143577500Y-106840000D03*
D37*
X172944600Y-131200000D03*
D38*
X171001500Y-131200000D03*
D22*
X192900000Y-48800000D03*
X193602944Y-47102944D03*
X193602944Y-50497056D03*
X195300000Y-46400000D03*
D23*
X195300000Y-48800000D03*
D22*
X195300000Y-51200000D03*
X196997056Y-47102944D03*
X196997056Y-50497056D03*
X197700000Y-48800000D03*
D11*
X185537500Y-92799999D03*
X187362500Y-92799999D03*
D33*
X178000000Y-67787500D03*
X178000000Y-69612500D03*
D46*
X163662500Y-119175000D03*
X161837500Y-119175000D03*
X167412500Y-105600000D03*
X165587500Y-105600000D03*
D24*
X172600000Y-87737500D03*
X172600000Y-89462500D03*
D33*
X190780000Y-115325000D03*
X190780000Y-117150000D03*
D30*
X192025000Y-86787500D03*
X192025000Y-84962500D03*
D33*
X184050000Y-68387500D03*
X184050000Y-70212500D03*
D35*
X187987500Y-120199999D03*
X189712500Y-120199999D03*
X165915000Y-53590000D03*
X164190000Y-53590000D03*
D24*
X177000000Y-87937500D03*
X177000000Y-89662500D03*
D30*
X123900000Y-70312500D03*
X123900000Y-68487500D03*
D25*
X163700000Y-114100002D03*
X163700000Y-112200000D03*
X161718800Y-113150001D03*
D48*
X169100000Y-63437500D03*
X169100000Y-61362500D03*
D46*
X163912500Y-108975000D03*
X162087500Y-108975000D03*
D35*
X178337500Y-80800000D03*
X180062500Y-80800000D03*
D33*
X155300000Y-100887500D03*
X155300000Y-102712500D03*
D67*
X133172500Y-99402500D03*
X133420000Y-102200000D03*
X133465000Y-104335000D03*
X125690000Y-104670000D03*
X124485000Y-100925000D03*
X125365000Y-99265000D03*
X125840000Y-98140000D03*
X150510000Y-126150000D03*
X154210000Y-125510000D03*
X156110000Y-125490000D03*
X175880000Y-109780000D03*
X174690000Y-128980000D03*
X168690000Y-132680000D03*
X170460000Y-117600000D03*
X168940000Y-129210000D03*
X149140000Y-117240000D03*
X173150000Y-68560000D03*
X163690000Y-74800000D03*
X132560000Y-57200000D03*
X166290000Y-67200000D03*
X168200000Y-65985000D03*
X182370000Y-70210000D03*
X188030000Y-116640000D03*
X133740000Y-69520000D03*
X139530000Y-54560000D03*
X181630000Y-91090000D03*
X182280000Y-95460000D03*
X181010000Y-121070000D03*
X171810000Y-84650000D03*
X187920000Y-58820000D03*
X186900000Y-71530000D03*
X153450000Y-122120000D03*
X154140000Y-112730000D03*
X153490000Y-131450000D03*
X157690000Y-87130000D03*
X165300000Y-87880000D03*
X179600000Y-132130000D03*
X143110000Y-73220000D03*
X191870000Y-70160000D03*
X189540000Y-58630000D03*
X174000000Y-60200000D03*
X176300000Y-80800000D03*
X180000000Y-63600000D03*
X167852500Y-53590000D03*
X127300000Y-82900000D03*
X178200000Y-52700000D03*
X178500000Y-89700000D03*
X172600000Y-90700000D03*
X185415000Y-107449999D03*
X137700000Y-55500000D03*
X192125000Y-73550000D03*
X175200000Y-52700000D03*
X136000000Y-57700000D03*
X188737500Y-100199999D03*
X164120000Y-90410000D03*
X184290000Y-61200000D03*
X185532500Y-72750000D03*
X158900000Y-83300000D03*
X127400000Y-88500000D03*
X177190594Y-64366021D03*
X190730000Y-118637500D03*
X185100000Y-133799999D03*
X179700000Y-85550000D03*
X133565000Y-107245000D03*
X164600000Y-83500000D03*
X186650000Y-103499999D03*
X181400000Y-80800000D03*
X189517500Y-68235000D03*
X170500000Y-90700000D03*
X143610000Y-102440000D03*
X195350000Y-74075000D03*
X189950000Y-71200000D03*
X161000000Y-52700000D03*
X128300000Y-112100000D03*
X134800000Y-54700000D03*
X175400000Y-85400000D03*
X130840000Y-112100000D03*
X180000000Y-62600000D03*
X192350000Y-97449999D03*
X184190000Y-65150000D03*
X188700000Y-97299999D03*
X179800000Y-50000000D03*
X174650000Y-72750000D03*
X174700000Y-90700000D03*
X192025000Y-88350000D03*
X156450000Y-85000000D03*
X192125000Y-78575000D03*
X169100000Y-59900000D03*
X128085000Y-54015000D03*
X141100000Y-78700000D03*
X176100000Y-66300000D03*
X176050000Y-62100000D03*
X145500000Y-117500000D03*
X161970000Y-54015000D03*
X162010000Y-73090000D03*
X159360000Y-79450000D03*
X134130000Y-57200000D03*
X169140000Y-111000000D03*
X169150000Y-115450000D03*
X177525000Y-77600000D03*
X163175000Y-55325000D03*
X177600000Y-76475000D03*
X164300000Y-60075000D03*
X121400000Y-62800000D03*
X133705000Y-62905000D03*
X120400000Y-64300000D03*
X133725000Y-64175000D03*
X134675000Y-66725000D03*
X129250000Y-79425000D03*
X161170000Y-62920000D03*
X161170000Y-76090000D03*
X122400000Y-61600000D03*
X133635000Y-61635000D03*
X133725000Y-65450000D03*
X119200000Y-65700000D03*
X182620000Y-61760000D03*
X181300000Y-65380000D03*
X171400000Y-66250000D03*
X171400000Y-71250000D03*
X171100000Y-73200000D03*
X165100000Y-76800000D03*
X136900000Y-60400000D03*
X175900000Y-69700000D03*
X162850000Y-61710000D03*
X162850000Y-73450000D03*
X183559000Y-64329000D03*
X181280000Y-60920000D03*
X156300000Y-115700000D03*
X154300000Y-115700000D03*
X132400000Y-67100000D03*
X165675000Y-82000000D03*
X163350000Y-100887500D03*
X165787500Y-118162500D03*
X163890000Y-71160000D03*
X166150000Y-108175000D03*
X165150000Y-72150000D03*
X166800000Y-126950000D03*
X147500000Y-84500000D03*
X141000000Y-116500000D03*
D68*
X133172500Y-99402500D02*
X133625000Y-98950000D01*
X124485000Y-100925000D02*
X120400000Y-96840000D01*
X125365000Y-99265000D02*
X121400000Y-95300000D01*
X122400000Y-61600000D02*
X122400000Y-94700000D01*
X122400000Y-94700000D02*
X125840000Y-98140000D01*
X159790000Y-141390000D02*
X157880000Y-143300000D01*
X157880000Y-143300000D02*
X145512450Y-143300000D01*
X145512450Y-143300000D02*
X144028550Y-141816100D01*
X153570000Y-126150000D02*
X150510000Y-126150000D01*
X153905000Y-125815000D02*
X153570000Y-126150000D01*
X154210000Y-125510000D02*
X153905000Y-125815000D01*
X151460000Y-128260000D02*
X151460000Y-132860000D01*
X150320000Y-133440000D02*
X150880000Y-133440000D01*
X150880000Y-133440000D02*
X151460000Y-132860000D01*
X144028550Y-136736100D02*
X144028550Y-134391450D01*
X144960000Y-133460000D02*
X148475000Y-133460000D01*
X144028550Y-134391450D02*
X144960000Y-133460000D01*
X148475000Y-133460000D02*
X148495000Y-133440000D01*
X144028550Y-141816100D02*
X144028550Y-136736100D01*
X153905000Y-125815000D02*
X151460000Y-128260000D01*
X151460000Y-132860000D02*
X151460000Y-138060000D01*
X151460000Y-138060000D02*
X154790000Y-141390000D01*
X161660000Y-125490000D02*
X156110000Y-125490000D01*
X163625500Y-123450001D02*
X163625500Y-123524500D01*
X163625500Y-123524500D02*
X161660000Y-125490000D01*
X163625500Y-123450001D02*
X169450000Y-123450001D01*
X170647450Y-124500000D02*
X170499999Y-124500000D01*
X170499999Y-124500000D02*
X169450000Y-123450001D01*
X169450000Y-123450001D02*
X170547452Y-123450001D01*
X170547452Y-123450001D02*
X170647450Y-123549999D01*
X175880000Y-111280000D02*
X175880000Y-109780000D01*
X177600000Y-113000000D02*
X175880000Y-111280000D01*
X175880000Y-109780000D02*
X175870000Y-109770000D01*
X166930000Y-111772500D02*
X166515000Y-112187500D01*
X166515000Y-112187500D02*
X163712500Y-112187500D01*
X163712500Y-112187500D02*
X163700000Y-112200000D01*
X166168750Y-109606250D02*
X166588750Y-109606250D01*
X166588750Y-109606250D02*
X166925000Y-109942500D01*
X174380000Y-129290000D02*
X174690000Y-128980000D01*
X173352550Y-129290000D02*
X174380000Y-129290000D01*
X173352550Y-125450001D02*
X173352550Y-129290000D01*
X167175000Y-133050000D02*
X168322500Y-131902500D01*
X168322500Y-132312500D02*
X168690000Y-132680000D01*
X168322500Y-131902500D02*
X168322500Y-132312500D01*
X169800000Y-116940000D02*
X170460000Y-117600000D01*
X169800000Y-116100000D02*
X169800000Y-116940000D01*
X170640000Y-128410000D02*
X170647450Y-128410000D01*
X168940000Y-129210000D02*
X169840000Y-129210000D01*
X169840000Y-129210000D02*
X170640000Y-128410000D01*
X170647450Y-125450001D02*
X170647450Y-128410000D01*
X163625500Y-121549999D02*
X165790000Y-121549999D01*
X150550000Y-115830000D02*
X149140000Y-117240000D01*
X151710000Y-115830000D02*
X150550000Y-115830000D01*
X154170000Y-115830000D02*
X151710000Y-115830000D01*
D69*
X172391250Y-67801250D02*
X173150000Y-68560000D01*
X172391250Y-67501250D02*
X172391250Y-67801250D01*
X173750000Y-66142500D02*
X172391250Y-67501250D01*
D70*
X168200000Y-65985000D02*
X167385000Y-65985000D01*
X172250000Y-65037500D02*
X172250000Y-66288127D01*
X172250000Y-66288127D02*
X170878127Y-67660000D01*
X170878127Y-67660000D02*
X169060000Y-67660000D01*
X169060000Y-67660000D02*
X167865000Y-66465000D01*
X172750000Y-65037500D02*
X172750000Y-66431594D01*
X168836532Y-68080000D02*
X167528266Y-66771734D01*
X172750000Y-66431594D02*
X171101594Y-68080000D01*
X171101594Y-68080000D02*
X168836532Y-68080000D01*
D68*
X176100000Y-66300000D02*
X176100000Y-68200000D01*
X173087500Y-71212500D02*
X173087500Y-81100000D01*
X176100000Y-68200000D02*
X173087500Y-71212500D01*
D69*
X164530000Y-73960000D02*
X163690000Y-74800000D01*
X164530000Y-73730000D02*
X164530000Y-73960000D01*
X164900000Y-74100000D02*
X164530000Y-73730000D01*
D68*
X133570000Y-56298300D02*
X133461700Y-56298300D01*
X133461700Y-56298300D02*
X132560000Y-57200000D01*
X134110000Y-56298300D02*
X133570000Y-56298300D01*
D70*
X166748266Y-66741734D02*
X166290000Y-67200000D01*
X167498266Y-66741734D02*
X166748266Y-66741734D01*
X167528266Y-66771734D02*
X167498266Y-66741734D01*
D69*
X192040000Y-65690000D02*
X192740000Y-65690000D01*
X193536600Y-61376600D02*
X192850000Y-60690000D01*
X192740000Y-65690000D02*
X193536600Y-64893400D01*
X193536600Y-64893400D02*
X193536600Y-61376600D01*
X192850000Y-60690000D02*
X192040000Y-60690000D01*
D68*
X154300000Y-115700000D02*
X154170000Y-115830000D01*
X151710000Y-115830000D02*
X137770000Y-115830000D01*
X133928550Y-119671450D02*
X133928550Y-135330000D01*
X137770000Y-115830000D02*
X133928550Y-119671450D01*
D69*
X184050000Y-70212500D02*
X182372500Y-70212500D01*
X182370000Y-70210000D02*
X182372500Y-70212500D01*
D70*
X187955000Y-114775000D02*
X190230000Y-114775000D01*
X190230000Y-114775000D02*
X190780000Y-115325000D01*
X189712500Y-120199999D02*
X190420001Y-120199999D01*
X190420001Y-120199999D02*
X190730000Y-119890000D01*
X190730000Y-119890000D02*
X190730000Y-118637500D01*
D68*
X187020000Y-120199999D02*
X185867500Y-120199999D01*
X190742500Y-118650000D02*
X190730000Y-118637500D01*
X188027499Y-116637499D02*
X188030000Y-116640000D01*
X186700000Y-116637499D02*
X188027499Y-116637499D01*
X139365000Y-53165000D02*
X139530000Y-53330000D01*
X140215000Y-54015000D02*
X139365000Y-53165000D01*
X139530000Y-53330000D02*
X139530000Y-54560000D01*
X184170000Y-92320000D02*
X182940000Y-91090000D01*
X182940000Y-91090000D02*
X181630000Y-91090000D01*
X184170000Y-94167499D02*
X184170000Y-92320000D01*
X182280000Y-95460000D02*
X183340000Y-95460000D01*
X183340000Y-95460000D02*
X184150000Y-96270000D01*
X184150000Y-96270000D02*
X184150000Y-96480000D01*
X184150000Y-97849999D02*
X184150000Y-96480000D01*
X184150000Y-94187499D02*
X184170000Y-94167499D01*
X184170000Y-92320000D02*
X184170000Y-89997800D01*
X184170000Y-89997800D02*
X184050000Y-89877800D01*
X180737500Y-124077500D02*
X180737500Y-121342500D01*
X180737500Y-121342500D02*
X181010000Y-121070000D01*
X185415000Y-119400000D02*
X180737500Y-124077500D01*
D70*
X171810000Y-85040000D02*
X171810000Y-84650000D01*
X172970000Y-86200000D02*
X171810000Y-85040000D01*
X171200000Y-86200000D02*
X172970000Y-86200000D01*
D69*
X189790000Y-60690000D02*
X187920000Y-58820000D01*
X192040000Y-60690000D02*
X189790000Y-60690000D01*
X186900000Y-71530000D02*
X186900000Y-72850000D01*
X186417500Y-68810000D02*
X185990000Y-69237500D01*
X185990000Y-69237500D02*
X185990000Y-71940000D01*
X185990000Y-71940000D02*
X186900000Y-72850000D01*
D68*
X155300000Y-120270000D02*
X153450000Y-122120000D01*
X155300000Y-117870000D02*
X155300000Y-120270000D01*
X155300000Y-111410000D02*
X155300000Y-117870000D01*
X155300000Y-111570000D02*
X154140000Y-112730000D01*
X155300000Y-111410000D02*
X155300000Y-111570000D01*
X155300000Y-109075000D02*
X155300000Y-111410000D01*
X155300000Y-129640000D02*
X153490000Y-131450000D01*
X155300000Y-128340000D02*
X155300000Y-129640000D01*
X155300000Y-125800000D02*
X155300000Y-128340000D01*
X157700000Y-87120000D02*
X157690000Y-87130000D01*
X157700000Y-85062500D02*
X157700000Y-87120000D01*
X159000000Y-87100000D02*
X159000000Y-87090000D01*
X159000000Y-87090000D02*
X157700000Y-85790000D01*
X157700000Y-85790000D02*
X157700000Y-85062500D01*
X158970000Y-86300000D02*
X158937500Y-86300000D01*
X158937500Y-86300000D02*
X157700000Y-85062500D01*
X159000000Y-85500000D02*
X158562500Y-85062500D01*
X158562500Y-85062500D02*
X157700000Y-85062500D01*
X158970000Y-86300000D02*
X160050000Y-86300000D01*
D70*
X165300000Y-86700000D02*
X165300000Y-87880000D01*
X164900000Y-86300000D02*
X165300000Y-86700000D01*
X164120000Y-90410000D02*
X163350000Y-89640000D01*
X163350000Y-89640000D02*
X163350000Y-87900000D01*
D68*
X144290000Y-72040000D02*
X143110000Y-73220000D01*
X144290000Y-69430000D02*
X144290000Y-72040000D01*
X144290000Y-64675000D02*
X144290000Y-69430000D01*
X161970000Y-54015000D02*
X163765000Y-54015000D01*
X163765000Y-54015000D02*
X164190000Y-53590000D01*
D69*
X190201250Y-68491250D02*
X191870000Y-70160000D01*
X190201250Y-67551250D02*
X190201250Y-68491250D01*
X190480000Y-67272500D02*
X190201250Y-67551250D01*
D70*
X170500000Y-86700000D02*
X171000000Y-86200000D01*
X166000000Y-85900000D02*
X166000000Y-85262500D01*
X164200000Y-85500000D02*
X165000000Y-86300000D01*
X171000000Y-86200000D02*
X171200000Y-86200000D01*
X163350000Y-87100000D02*
X164100000Y-87100000D01*
X170500000Y-87737500D02*
X170500000Y-86700000D01*
X176300000Y-80800000D02*
X176450000Y-80950000D01*
X167600000Y-86300000D02*
X165000000Y-86300000D01*
X174000000Y-60200000D02*
X173850000Y-60200000D01*
X176450000Y-85450000D02*
X175700000Y-86200000D01*
X175700000Y-86200000D02*
X175000000Y-86200000D01*
X164100000Y-87100000D02*
X164900000Y-86300000D01*
X167700000Y-86200000D02*
X167600000Y-86300000D01*
X174250000Y-60300000D02*
X174150000Y-60200000D01*
X174150000Y-60200000D02*
X174000000Y-60200000D01*
X176450000Y-84340000D02*
X176450000Y-85450000D01*
X175000000Y-86200000D02*
X173100000Y-86200000D01*
X172600000Y-86700000D02*
X173100000Y-86200000D01*
X166400000Y-86300000D02*
X166000000Y-85900000D01*
X173850000Y-60200000D02*
X173750000Y-60300000D01*
X164900000Y-86300000D02*
X163350000Y-86300000D01*
X174250000Y-61162500D02*
X174250000Y-60300000D01*
X163350000Y-85500000D02*
X164200000Y-85500000D01*
X174700000Y-87700000D02*
X174700000Y-86500000D01*
X176450000Y-80950000D02*
X176450000Y-82860000D01*
X165000000Y-86300000D02*
X164900000Y-86300000D01*
X172970000Y-86200000D02*
X173100000Y-86200000D01*
X176450000Y-82860000D02*
X176450000Y-84340000D01*
X173750000Y-60300000D02*
X173750000Y-61162500D01*
X171200000Y-86200000D02*
X167700000Y-86200000D01*
X174700000Y-86500000D02*
X175000000Y-86200000D01*
X172600000Y-87737500D02*
X172600000Y-86700000D01*
X167600000Y-86300000D02*
X166400000Y-86300000D01*
X174937500Y-63850000D02*
X173750000Y-63850000D01*
X170500000Y-89462500D02*
X170500000Y-90700000D01*
X187300000Y-100187499D02*
X187312500Y-100199999D01*
D68*
X161000000Y-52700000D02*
X160955000Y-52745000D01*
X127300000Y-85200000D02*
X128000000Y-85900000D01*
X137700000Y-54362500D02*
X137700000Y-55500000D01*
D70*
X180062500Y-80800000D02*
X181400000Y-80800000D01*
D69*
X185846665Y-112049999D02*
X185415000Y-111618334D01*
X189962500Y-72950000D02*
X189962500Y-71212500D01*
D68*
X141250000Y-52745000D02*
X142406400Y-52745000D01*
D70*
X174700000Y-89425000D02*
X174700000Y-90700000D01*
X190780000Y-118587500D02*
X190730000Y-118637500D01*
D71*
X173172000Y-63352000D02*
X173167500Y-63347500D01*
D68*
X148475000Y-61375000D02*
X148500000Y-61400000D01*
D70*
X158900000Y-83300000D02*
X158862500Y-83337500D01*
D68*
X142406400Y-52745000D02*
X148500000Y-58838600D01*
X133530000Y-107280000D02*
X133565000Y-107245000D01*
X128000000Y-85900000D02*
X127400000Y-86500000D01*
D69*
X191070000Y-66690000D02*
X190487500Y-67272500D01*
D68*
X127300000Y-82900000D02*
X127300000Y-85200000D01*
D70*
X184290000Y-61200000D02*
X184340000Y-61250000D01*
X179737500Y-85512500D02*
X179700000Y-85550000D01*
D68*
X165915000Y-53590000D02*
X167852500Y-53590000D01*
X144085000Y-99090000D02*
X143872500Y-99090000D01*
X178210000Y-52710000D02*
X178200000Y-52700000D01*
X137137500Y-57700000D02*
X136000000Y-57700000D01*
X158750000Y-52745000D02*
X160955000Y-52745000D01*
X175200000Y-54575000D02*
X175200000Y-52700000D01*
X192350000Y-96062499D02*
X192350000Y-97449999D01*
D70*
X187312500Y-100199999D02*
X188737500Y-100199999D01*
D68*
X166000000Y-83537500D02*
X164637500Y-83537500D01*
X178210000Y-54575000D02*
X178210000Y-52710000D01*
D70*
X184340000Y-61250000D02*
X185477500Y-61250000D01*
D69*
X185415000Y-111618334D02*
X185415000Y-109325001D01*
D68*
X181725000Y-50000000D02*
X179800000Y-50000000D01*
D69*
X176337500Y-72750000D02*
X174650000Y-72750000D01*
D68*
X185100000Y-133799999D02*
X185050000Y-133849999D01*
D70*
X185627500Y-65150000D02*
X184190000Y-65150000D01*
D69*
X188317500Y-68235000D02*
X189517500Y-68235000D01*
D68*
X143872500Y-99090000D02*
X143822500Y-99140000D01*
X158750000Y-52745000D02*
X155495000Y-52745000D01*
X195350000Y-77210000D02*
X195350000Y-74075000D01*
D70*
X177190594Y-64366021D02*
X177166021Y-64366021D01*
D69*
X183905000Y-72750000D02*
X185532500Y-72750000D01*
D70*
X178462500Y-89662500D02*
X178500000Y-89700000D01*
X176650000Y-63850000D02*
X174937500Y-63850000D01*
X185477500Y-61250000D02*
X185727500Y-61500000D01*
X185415000Y-107449999D02*
X185415000Y-109325001D01*
X177166021Y-64366021D02*
X176650000Y-63850000D01*
D68*
X148500000Y-61400000D02*
X148500000Y-61371616D01*
D70*
X177000000Y-89662500D02*
X178462500Y-89662500D01*
D68*
X133565000Y-107245000D02*
X133570000Y-107240000D01*
X148500000Y-58838600D02*
X148500000Y-59065000D01*
X144290000Y-69430000D02*
X144290000Y-70505000D01*
D70*
X187262500Y-97299999D02*
X188700000Y-97299999D01*
D68*
X143610000Y-99002500D02*
X143822500Y-98790000D01*
D70*
X175950000Y-84340000D02*
X175950000Y-84850000D01*
D68*
X148475000Y-59765000D02*
X148475000Y-61375000D01*
D70*
X181150000Y-85512500D02*
X179737500Y-85512500D01*
D68*
X143610000Y-102440000D02*
X143577500Y-102472500D01*
D70*
X186650000Y-104687499D02*
X186650000Y-103499999D01*
D69*
X189950000Y-71200000D02*
X189962500Y-71212500D01*
X190201250Y-67551250D02*
X189517500Y-68235000D01*
D68*
X143577500Y-102472500D02*
X143577500Y-106840000D01*
D69*
X191940000Y-66690000D02*
X191070000Y-66690000D01*
X190487500Y-67272500D02*
X190480000Y-67272500D01*
D70*
X172600000Y-89462500D02*
X172600000Y-90700000D01*
D68*
X127400000Y-86500000D02*
X127400000Y-86600000D01*
X157700000Y-83337500D02*
X158862500Y-83337500D01*
D70*
X190780000Y-117150000D02*
X190780000Y-118587500D01*
D68*
X135137500Y-54362500D02*
X134800000Y-54700000D01*
X141250000Y-52745000D02*
X141205000Y-52700000D01*
D70*
X173750000Y-63850000D02*
X173000000Y-63100000D01*
D68*
X192125000Y-74962500D02*
X192125000Y-73550000D01*
D70*
X164637500Y-83537500D02*
X164600000Y-83500000D01*
D68*
X127400000Y-86500000D02*
X127400000Y-88500000D01*
D69*
X191940000Y-59690000D02*
X190600000Y-59690000D01*
D68*
X136000000Y-54362500D02*
X135137500Y-54362500D01*
X155495000Y-52745000D02*
X148475000Y-59765000D01*
X185100000Y-131862899D02*
X185100000Y-133799999D01*
X148500000Y-60465000D02*
X144290000Y-64675000D01*
X148500000Y-61371616D02*
X148500280Y-61371336D01*
D70*
X175950000Y-84850000D02*
X175400000Y-85400000D01*
X186650000Y-104687499D02*
X186650000Y-104649999D01*
X185677500Y-65100000D02*
X185627500Y-65150000D01*
D69*
X186050000Y-112049999D02*
X185846665Y-112049999D01*
X190600000Y-59690000D02*
X189540000Y-58630000D01*
D68*
X143610000Y-102440000D02*
X143610000Y-99002500D01*
D70*
X187275000Y-97312499D02*
X187262500Y-97299999D01*
D68*
X193300000Y-79750000D02*
X192125000Y-78575000D01*
X129587500Y-54600000D02*
X128670000Y-54600000D01*
D70*
X176100000Y-66300000D02*
X176512500Y-66300000D01*
X178210000Y-57190000D02*
X178210000Y-56300000D01*
D68*
X138512500Y-81287500D02*
X141100000Y-78700000D01*
D70*
X183387500Y-56300000D02*
X183400000Y-56312500D01*
X175200000Y-56300000D02*
X175200000Y-57000000D01*
D68*
X192125000Y-78575000D02*
X192125000Y-77037500D01*
X176050000Y-62100000D02*
X176700000Y-61450000D01*
X156450000Y-85000000D02*
X157637500Y-85000000D01*
D10*
X142912500Y-120087500D02*
X145500000Y-117500000D01*
D68*
X160050000Y-87100000D02*
X161300000Y-87100000D01*
X160050000Y-85500000D02*
X159000000Y-85500000D01*
D70*
X175950000Y-61850000D02*
X176050000Y-61950000D01*
X176512500Y-66300000D02*
X178000000Y-67787500D01*
D68*
X129400000Y-52700000D02*
X138200000Y-52700000D01*
D70*
X175200000Y-57000000D02*
X174700000Y-57500000D01*
X176050000Y-61950000D02*
X176050000Y-62100000D01*
D68*
X160050000Y-82875000D02*
X161825000Y-81100000D01*
X128085000Y-54015000D02*
X129400000Y-52700000D01*
X191975000Y-80387500D02*
X192662500Y-80387500D01*
D70*
X169100000Y-61362500D02*
X169100000Y-59900000D01*
X177900000Y-57500000D02*
X178210000Y-57190000D01*
X174700000Y-57500000D02*
X176700000Y-57500000D01*
D68*
X195350000Y-79750000D02*
X193300000Y-79750000D01*
D70*
X175950000Y-62350000D02*
X174937500Y-62350000D01*
D68*
X141250000Y-54015000D02*
X140215000Y-54015000D01*
D70*
X176050000Y-62100000D02*
X176050000Y-62250000D01*
X176700000Y-57500000D02*
X177900000Y-57500000D01*
D68*
X192025000Y-86787500D02*
X192025000Y-88350000D01*
D70*
X174937500Y-61850000D02*
X175950000Y-61850000D01*
D10*
X142912500Y-122500000D02*
X142912500Y-120087500D01*
D70*
X174292500Y-57500000D02*
X174700000Y-57500000D01*
D68*
X161825000Y-81100000D02*
X173087500Y-81100000D01*
D70*
X178210000Y-56300000D02*
X183387500Y-56300000D01*
D68*
X192662500Y-80387500D02*
X193300000Y-79750000D01*
X160050000Y-87100000D02*
X159000000Y-87100000D01*
X176700000Y-61450000D02*
X176700000Y-57500000D01*
X128085000Y-54015000D02*
X124100000Y-58000000D01*
X139365000Y-53165000D02*
X138900000Y-52700000D01*
X124100000Y-58000000D02*
X124100000Y-58450000D01*
X161300000Y-87100000D02*
X161700000Y-86700000D01*
X138900000Y-52700000D02*
X138200000Y-52700000D01*
D70*
X176050000Y-62250000D02*
X175950000Y-62350000D01*
X173200000Y-58592500D02*
X174292500Y-57500000D01*
D68*
X160050000Y-85500000D02*
X160050000Y-82875000D01*
X128670000Y-54600000D02*
X128085000Y-54015000D01*
X157637500Y-85000000D02*
X157700000Y-85062500D01*
X136200000Y-81287500D02*
X138512500Y-81287500D01*
X149200000Y-85900000D02*
X134000000Y-85900000D01*
X136200000Y-84275000D02*
X136200000Y-83112500D01*
X134575000Y-85900000D02*
X136200000Y-84275000D01*
X158750000Y-54015000D02*
X161970000Y-54015000D01*
X162010000Y-73090000D02*
X149200000Y-85900000D01*
X134000000Y-85900000D02*
X134575000Y-85900000D01*
D69*
X172328400Y-78721600D02*
X171620000Y-79430000D01*
X170300000Y-69310000D02*
X171550000Y-69310000D01*
X171550000Y-69310000D02*
X172328400Y-70088400D01*
D68*
X139498300Y-56298300D02*
X134110000Y-56298300D01*
D69*
X159380000Y-79430000D02*
X159360000Y-79450000D01*
X172328400Y-70088400D02*
X172328400Y-78721600D01*
X171620000Y-79430000D02*
X159380000Y-79430000D01*
D68*
X139498300Y-56298300D02*
X138862500Y-56934100D01*
D69*
X134130000Y-57200000D02*
X134130000Y-56318300D01*
D68*
X140511600Y-55285000D02*
X139498300Y-56298300D01*
X138862500Y-56934100D02*
X138862500Y-57700000D01*
X141250000Y-55285000D02*
X140511600Y-55285000D01*
D69*
X134130000Y-56318300D02*
X134110000Y-56298300D01*
D68*
X133110800Y-56298300D02*
X131412500Y-54600000D01*
X133570000Y-56298300D02*
X133110800Y-56298300D01*
X184150000Y-101249999D02*
X184150000Y-97849999D01*
X185587500Y-100199999D02*
X184550000Y-100199999D01*
X184900000Y-97299999D02*
X185537500Y-97299999D01*
X184150000Y-94187499D02*
X185537500Y-92799999D01*
X184900000Y-97299999D02*
X184350000Y-97849999D01*
X184550000Y-100199999D02*
X184150000Y-100599999D01*
X184150000Y-101987499D02*
X184150000Y-101249999D01*
X184150000Y-100599999D02*
X184150000Y-101249999D01*
X184350000Y-97849999D02*
X184150000Y-97849999D01*
X184150000Y-96480000D02*
X184150000Y-94187499D01*
X183400000Y-50075000D02*
X183475000Y-50000000D01*
X183400000Y-54487500D02*
X183400000Y-50075000D01*
D69*
X188317500Y-67535000D02*
X188317500Y-66952500D01*
X187542500Y-66760000D02*
X188317500Y-67535000D01*
X188317500Y-66952500D02*
X189580000Y-65690000D01*
X192040000Y-65690000D02*
X189580000Y-65690000D01*
X186417500Y-66760000D02*
X187542500Y-66760000D01*
D68*
X170694900Y-116100000D02*
X169800000Y-116100000D01*
X170687500Y-105600000D02*
X170687500Y-109486000D01*
X169800000Y-116100000D02*
X169150000Y-115450000D01*
X170687500Y-105600000D02*
X167412500Y-105600000D01*
X169140000Y-111000000D02*
X170001500Y-111000000D01*
X170687500Y-109486000D02*
X171101500Y-109900000D01*
X170001500Y-111000000D02*
X171101500Y-109900000D01*
X190162500Y-84962500D02*
X182775000Y-77575000D01*
X195350000Y-84830000D02*
X192157500Y-84830000D01*
X177550000Y-77575000D02*
X177525000Y-77600000D01*
X192025000Y-84962500D02*
X190162500Y-84962500D01*
X163175000Y-55325000D02*
X163135000Y-55285000D01*
X182775000Y-77575000D02*
X177550000Y-77575000D01*
X192157500Y-84830000D02*
X192025000Y-84962500D01*
X163135000Y-55285000D02*
X158750000Y-55285000D01*
X192052500Y-82290000D02*
X191975000Y-82212500D01*
X183275000Y-76475000D02*
X177600000Y-76475000D01*
X189012500Y-82212500D02*
X183275000Y-76475000D01*
X158770000Y-59075000D02*
X158750000Y-59095000D01*
X163320000Y-59095000D02*
X158750000Y-59095000D01*
X164300000Y-60075000D02*
X163320000Y-59095000D01*
X191975000Y-82212500D02*
X189012500Y-82212500D01*
X195350000Y-82290000D02*
X192052500Y-82290000D01*
X133705000Y-62905000D02*
X141250000Y-62905000D01*
X121400000Y-95300000D02*
X121400000Y-62800000D01*
X120400000Y-96840000D02*
X120400000Y-64300000D01*
X133725000Y-64175000D02*
X141250000Y-64175000D01*
X126375000Y-91725000D02*
X124900000Y-90250000D01*
X141250000Y-66715000D02*
X134685000Y-66715000D01*
D70*
X134685000Y-66715000D02*
X134675000Y-66725000D01*
D68*
X127525000Y-79425000D02*
X129250000Y-79425000D01*
X133625000Y-94575000D02*
X130775000Y-91725000D01*
X133625000Y-98950000D02*
X133625000Y-94575000D01*
X130775000Y-91725000D02*
X126375000Y-91725000D01*
X124900000Y-82050000D02*
X127525000Y-79425000D01*
X124900000Y-90250000D02*
X124900000Y-82050000D01*
X135114110Y-102700000D02*
X135100000Y-102700000D01*
X158765000Y-62920000D02*
X158750000Y-62905000D01*
X161170000Y-76644110D02*
X135114110Y-102700000D01*
X161170000Y-62920000D02*
X158765000Y-62920000D01*
X161170000Y-76090000D02*
X161170000Y-76644110D01*
X135100000Y-102700000D02*
X133465000Y-104335000D01*
X133635000Y-61635000D02*
X141250000Y-61635000D01*
X119200000Y-98180000D02*
X125690000Y-104670000D01*
X133955000Y-65445000D02*
X141250000Y-65445000D01*
X119200000Y-65700000D02*
X119200000Y-98180000D01*
X133725000Y-65450000D02*
X133950000Y-65450000D01*
X133950000Y-65450000D02*
X133955000Y-65445000D01*
D71*
X182101251Y-64060000D02*
X181107500Y-64060000D01*
X183300000Y-62440000D02*
X192040000Y-62440000D01*
X182620000Y-61760000D02*
X183300000Y-62440000D01*
X191940000Y-63440000D02*
X191932000Y-63432000D01*
X182729251Y-63432000D02*
X182101251Y-64060000D01*
X191932000Y-63432000D02*
X182729251Y-63432000D01*
X181300000Y-65380000D02*
X181300000Y-64252500D01*
X181300000Y-64252500D02*
X181107500Y-64060000D01*
D70*
X171750000Y-65037500D02*
X171750000Y-65900000D01*
X170300000Y-71210000D02*
X169650000Y-71210000D01*
X171750000Y-65900000D02*
X171400000Y-66250000D01*
X171400000Y-71250000D02*
X170340000Y-71250000D01*
X170340000Y-71250000D02*
X170300000Y-71210000D01*
D69*
X169650000Y-68991024D02*
X169650000Y-69310000D01*
X171260900Y-68631600D02*
X170009424Y-68631600D01*
X169650000Y-69310000D02*
X169650000Y-70241024D01*
X169650000Y-70241024D02*
X169000000Y-70891024D01*
X172391250Y-67501250D02*
X171260900Y-68631600D01*
X169000000Y-70891024D02*
X169000000Y-71210000D01*
X173750000Y-65037500D02*
X173750000Y-66142500D01*
X170009424Y-68631600D02*
X169650000Y-68991024D01*
X166500000Y-70500000D02*
X166500000Y-73500000D01*
X165900000Y-74100000D02*
X164900000Y-74100000D01*
X164530000Y-73730000D02*
X160055000Y-69255000D01*
X160055000Y-69255000D02*
X158750000Y-69255000D01*
X166500000Y-73500000D02*
X165900000Y-74100000D01*
X169000000Y-69310000D02*
X167690000Y-69310000D01*
X167690000Y-69310000D02*
X166500000Y-70500000D01*
D68*
X155300000Y-106900000D02*
X155300000Y-109075000D01*
X155300000Y-117870000D02*
X155300000Y-118075000D01*
X160100000Y-113150000D02*
X160100000Y-113100000D01*
X158450000Y-121750000D02*
X159200000Y-122500000D01*
X158518800Y-104550001D02*
X156449999Y-104550001D01*
X158450000Y-121750000D02*
X155300000Y-118600000D01*
X155300000Y-118075000D02*
X155300000Y-125800000D01*
X160100000Y-113100000D02*
X158650000Y-111650000D01*
X158650000Y-111650000D02*
X158650000Y-110225000D01*
X158375000Y-110500000D02*
X158650000Y-110225000D01*
X156400000Y-110500000D02*
X158375000Y-110500000D01*
X155300000Y-109400000D02*
X156400000Y-110500000D01*
X155300000Y-128340000D02*
X155300000Y-129650000D01*
X156800000Y-127300000D02*
X155300000Y-125800000D01*
X161837500Y-119175000D02*
X159150000Y-119175000D01*
X159200000Y-122500000D02*
X161644300Y-122500000D01*
X158450000Y-119875000D02*
X158450000Y-121750000D01*
X155300000Y-105700000D02*
X155300000Y-106300000D01*
X161718800Y-113150001D02*
X160100000Y-113150000D01*
X155300000Y-129650000D02*
X157600001Y-131950001D01*
X158650000Y-110225000D02*
X159900000Y-108975000D01*
X155300000Y-106300000D02*
X155300000Y-106900000D01*
X156449999Y-104550001D02*
X155300000Y-105700000D01*
X159900000Y-108975000D02*
X162087500Y-108975000D01*
X154200000Y-105800000D02*
X155300000Y-106900000D01*
X155300000Y-118600000D02*
X155300000Y-118075000D01*
X151800000Y-105800000D02*
X154200000Y-105800000D01*
X155300000Y-102712500D02*
X155300000Y-106300000D01*
X159150000Y-119175000D02*
X158450000Y-119875000D01*
X155300000Y-109075000D02*
X155300000Y-109400000D01*
X159087500Y-127300000D02*
X156800000Y-127300000D01*
X157600001Y-131950001D02*
X158818800Y-131950001D01*
X126000000Y-70325000D02*
X126000000Y-74900000D01*
X126800000Y-75700000D02*
X143800000Y-75700000D01*
X143800000Y-75700000D02*
X145560000Y-73940000D01*
X145560000Y-73940000D02*
X145560000Y-70505000D01*
X126000000Y-74900000D02*
X126800000Y-75700000D01*
X154450000Y-76250000D02*
X154450000Y-70505000D01*
X123900000Y-70312500D02*
X123900000Y-75700000D01*
X126100000Y-77900000D02*
X152800000Y-77900000D01*
X123900000Y-75700000D02*
X126100000Y-77900000D01*
X152800000Y-77900000D02*
X154450000Y-76250000D01*
X130900000Y-64212500D02*
X130900000Y-66600000D01*
X130900000Y-66600000D02*
X132285000Y-67985000D01*
X132285000Y-67985000D02*
X141250000Y-67985000D01*
D70*
X165000000Y-57825000D02*
X158750000Y-57825000D01*
X165300000Y-58125000D02*
X165000000Y-57825000D01*
X165300000Y-61500000D02*
X165350000Y-61450000D01*
X158775000Y-57850000D02*
X158750000Y-57825000D01*
X165300000Y-61500000D02*
X165300000Y-58125000D01*
X167200000Y-57000000D02*
X166755000Y-56555000D01*
X167200000Y-61500000D02*
X167200000Y-57000000D01*
X158755000Y-56550000D02*
X158750000Y-56555000D01*
X166755000Y-56555000D02*
X158750000Y-56555000D01*
D69*
X165800000Y-76100000D02*
X168200000Y-76100000D01*
X168200000Y-76100000D02*
X171100000Y-73200000D01*
X165100000Y-76800000D02*
X165800000Y-76100000D01*
X136900000Y-60400000D02*
X136935000Y-60365000D01*
X178000000Y-69612500D02*
X179207500Y-69612500D01*
X175900000Y-69700000D02*
X177912500Y-69700000D01*
X177912500Y-69700000D02*
X178000000Y-69612500D01*
X141250000Y-60365000D02*
X136935000Y-60365000D01*
X179207500Y-69612500D02*
X181395000Y-71800000D01*
D68*
X160914200Y-75385800D02*
X160573194Y-75385800D01*
X133758994Y-102200000D02*
X133420000Y-102200000D01*
X160573194Y-75385800D02*
X133758994Y-102200000D01*
X162850000Y-61710000D02*
X162775000Y-61635000D01*
X162775000Y-61635000D02*
X158750000Y-61635000D01*
X162850000Y-73450000D02*
X160914200Y-75385800D01*
D71*
X182101251Y-62160000D02*
X181107500Y-62160000D01*
X192033000Y-63947000D02*
X192040000Y-63940000D01*
X190881999Y-62948000D02*
X182889251Y-62948000D01*
X181107500Y-62160000D02*
X181280000Y-61987500D01*
X181280000Y-60920000D02*
X181280000Y-61987500D01*
X183559000Y-64329000D02*
X183818000Y-64070000D01*
X183818000Y-64070000D02*
X190973312Y-64070000D01*
X190889999Y-62940000D02*
X190881999Y-62948000D01*
X192040000Y-62940000D02*
X190889999Y-62940000D01*
X191096312Y-63947000D02*
X192033000Y-63947000D01*
X182889251Y-62948000D02*
X182101251Y-62160000D01*
X190973312Y-64070000D02*
X191096312Y-63947000D01*
D68*
X185450000Y-126449999D02*
X185450000Y-123774999D01*
X190900000Y-126499999D02*
X185400000Y-126499999D01*
X185400000Y-126499999D02*
X185100000Y-126799999D01*
X185100000Y-126799999D02*
X185100000Y-128637099D01*
X185400000Y-126499999D02*
X185450000Y-126449999D01*
D71*
X178832500Y-64060000D02*
X177792500Y-64060000D01*
X177792500Y-64060000D02*
X177074500Y-63342000D01*
X175564251Y-63342000D02*
X175556251Y-63350000D01*
X177074500Y-63342000D02*
X175564251Y-63342000D01*
X175556251Y-63350000D02*
X174937500Y-63350000D01*
X175564251Y-62858000D02*
X175556251Y-62850000D01*
X178832500Y-62160000D02*
X177657500Y-62160000D01*
X177657500Y-62160000D02*
X176959500Y-62858000D01*
X176959500Y-62858000D02*
X175564251Y-62858000D01*
X175556251Y-62850000D02*
X174937500Y-62850000D01*
D68*
X163000000Y-115700000D02*
X163700000Y-115000000D01*
X133928550Y-135330000D02*
X133928550Y-136636100D01*
X163700000Y-115000000D02*
X163700000Y-114100002D01*
X156300000Y-115700000D02*
X163000000Y-115700000D01*
X133928550Y-135330000D02*
X133928550Y-141716100D01*
X170694900Y-114199998D02*
X163799996Y-114199998D01*
X163799996Y-114199998D02*
X163700000Y-114100002D01*
X174912500Y-81687500D02*
X174912500Y-81100000D01*
D70*
X175950000Y-82137500D02*
X174912500Y-81100000D01*
X175950000Y-82860000D02*
X175950000Y-82137500D01*
D68*
X174600000Y-82000000D02*
X174912500Y-81687500D01*
X132400000Y-59900000D02*
X133205000Y-59095000D01*
X165675000Y-82000000D02*
X174600000Y-82000000D01*
X132400000Y-67100000D02*
X132400000Y-59900000D01*
X133205000Y-59095000D02*
X141250000Y-59095000D01*
D69*
X184050000Y-68387500D02*
X184080000Y-68417500D01*
X186900000Y-72850000D02*
X186900000Y-73000000D01*
X188237500Y-72950000D02*
X187000000Y-72950000D01*
X186200000Y-73700000D02*
X183905000Y-73700000D01*
X186205000Y-69022500D02*
X186417500Y-68810000D01*
X185995000Y-68387500D02*
X186417500Y-68810000D01*
X184050000Y-68387500D02*
X185995000Y-68387500D01*
X186900000Y-73000000D02*
X186200000Y-73700000D01*
X187000000Y-72950000D02*
X186900000Y-72850000D01*
D70*
X176322200Y-74750000D02*
X176322200Y-79222200D01*
X176950000Y-80500000D02*
X176950000Y-82860000D01*
X176322200Y-79222200D02*
X176950000Y-79850000D01*
X178337500Y-80800000D02*
X177250000Y-80800000D01*
X177250000Y-80800000D02*
X176950000Y-80500000D01*
X176950000Y-79850000D02*
X176950000Y-80500000D01*
X184000000Y-85562500D02*
X184837500Y-85562500D01*
X184837500Y-85562500D02*
X185450000Y-84950000D01*
X184050000Y-87922200D02*
X184050000Y-85612500D01*
X185450000Y-82250000D02*
X185300000Y-82100000D01*
X177450000Y-82450000D02*
X177450000Y-82860000D01*
X179272200Y-87922200D02*
X176950000Y-85600000D01*
X177000000Y-85650000D02*
X177000000Y-87937500D01*
X176950000Y-85600000D02*
X177000000Y-85650000D01*
X184050000Y-85612500D02*
X184000000Y-85562500D01*
X184050000Y-87922200D02*
X179272200Y-87922200D01*
X185450000Y-84950000D02*
X185450000Y-82250000D01*
X177800000Y-82100000D02*
X177450000Y-82450000D01*
X176950000Y-85600000D02*
X176950000Y-84340000D01*
X185300000Y-82100000D02*
X177800000Y-82100000D01*
X169187500Y-63350000D02*
X169100000Y-63437500D01*
X171062500Y-63350000D02*
X169187500Y-63350000D01*
X186685000Y-106477499D02*
X186750000Y-106412499D01*
X186685000Y-109325001D02*
X186685000Y-106477499D01*
D68*
X181500000Y-114299999D02*
X181500000Y-113162499D01*
X184145000Y-114775000D02*
X181975001Y-114775000D01*
X181975001Y-114775000D02*
X181500000Y-114299999D01*
X181500000Y-110199999D02*
X181500000Y-111337499D01*
X182374998Y-109325001D02*
X181500000Y-110199999D01*
X184145000Y-104117499D02*
X184150000Y-104112499D01*
X184150000Y-104112499D02*
X184150000Y-109320001D01*
X184150000Y-109320001D02*
X184145000Y-109325001D01*
X184145000Y-109325001D02*
X182374998Y-109325001D01*
X123900000Y-68487500D02*
X123900000Y-61750000D01*
X123900000Y-61750000D02*
X124100000Y-61550000D01*
X126000000Y-68500000D02*
X126000000Y-62050000D01*
X126000000Y-62050000D02*
X125500000Y-61550000D01*
X130900000Y-62387500D02*
X130900000Y-59700000D01*
X129600000Y-58400000D02*
X129550000Y-58450000D01*
X129550000Y-58450000D02*
X125500000Y-58450000D01*
X130900000Y-59700000D02*
X129600000Y-58400000D01*
X168322500Y-131902500D02*
X169025000Y-131200000D01*
X170647450Y-128410000D02*
X170647450Y-130845950D01*
X165687500Y-133050000D02*
X167175000Y-133050000D01*
X171001500Y-131200000D02*
X171001500Y-135786000D01*
X170647450Y-130845950D02*
X171001500Y-131200000D01*
X169025000Y-131200000D02*
X171001500Y-131200000D01*
X171001500Y-135786000D02*
X170587500Y-136200000D01*
D70*
X192040000Y-64440000D02*
X191267992Y-64440000D01*
X191267992Y-64440000D02*
X190607992Y-65100000D01*
X190607992Y-65100000D02*
X187502500Y-65100000D01*
X192040000Y-61440000D02*
X187692500Y-61440000D01*
X187692500Y-61440000D02*
X187552500Y-61300000D01*
D69*
X180345000Y-74750000D02*
X178277800Y-74750000D01*
X181395000Y-73700000D02*
X180345000Y-74750000D01*
X184050000Y-71655000D02*
X183905000Y-71800000D01*
X184050000Y-70212500D02*
X184050000Y-71655000D01*
X181395000Y-72750000D02*
X178162500Y-72750000D01*
D70*
X181750000Y-82650000D02*
X180200000Y-82650000D01*
X184000000Y-83100000D02*
X183550000Y-82650000D01*
X180200000Y-82650000D02*
X178510000Y-84340000D01*
X178510000Y-84340000D02*
X177450000Y-84340000D01*
X184000000Y-83737500D02*
X184000000Y-83100000D01*
X183550000Y-82650000D02*
X181750000Y-82650000D01*
X181150000Y-83250000D02*
X181150000Y-83687500D01*
X181750000Y-82650000D02*
X181150000Y-83250000D01*
D69*
X173250000Y-59457500D02*
X173250000Y-61162500D01*
X173200000Y-59407500D02*
X173250000Y-59457500D01*
D70*
X167528266Y-66771734D02*
X165300000Y-64543468D01*
X165300000Y-64543468D02*
X165300000Y-63325000D01*
X167865000Y-66465000D02*
X167200000Y-65800000D01*
X167200000Y-65800000D02*
X167200000Y-63325000D01*
D68*
X186685000Y-116622499D02*
X186700000Y-116637499D01*
X186685000Y-114775000D02*
X186685000Y-116622499D01*
X189950000Y-92799999D02*
X190912500Y-92799999D01*
X187955000Y-107894999D02*
X189950000Y-105899999D01*
X189950000Y-105899999D02*
X189950000Y-92799999D01*
X187362500Y-92799999D02*
X189950000Y-92799999D01*
X190912500Y-92799999D02*
X192350000Y-94237499D01*
X187955000Y-109325001D02*
X187955000Y-107894999D01*
X177600000Y-107400000D02*
X177600000Y-101500000D01*
X177700000Y-133100000D02*
X174600000Y-136200000D01*
X177600000Y-114455400D02*
X177600000Y-113000000D01*
X180737500Y-124077500D02*
X179364999Y-125450001D01*
X177600000Y-107400000D02*
X175800000Y-105600000D01*
X177700000Y-127300000D02*
X177700000Y-133100000D01*
X177600000Y-118500000D02*
X177600000Y-123750001D01*
X174000000Y-97900000D02*
X151412500Y-97900000D01*
X177600000Y-114455400D02*
X177600000Y-107400000D01*
X185415000Y-119747499D02*
X186700000Y-118462499D01*
X175880000Y-111280000D02*
X174500000Y-109900000D01*
X185415000Y-119400000D02*
X185415000Y-114775000D01*
X174600000Y-136200000D02*
X172412500Y-136200000D01*
X179364999Y-125450001D02*
X177600000Y-125450001D01*
X179300000Y-125700000D02*
X177700000Y-127300000D01*
X185415000Y-120099999D02*
X185415000Y-119400000D01*
X174500000Y-109900000D02*
X173044600Y-109900000D01*
X173044600Y-106132100D02*
X173044600Y-109900000D01*
X177600000Y-123750001D02*
X179300000Y-125450001D01*
X177600000Y-118500000D02*
X175200000Y-116100000D01*
X177600000Y-125450001D02*
X173352550Y-125450001D01*
X177600000Y-118500000D02*
X177600000Y-114455400D01*
X175800000Y-105600000D02*
X172512500Y-105600000D01*
X173352550Y-130792050D02*
X172944600Y-131200000D01*
X172512500Y-105600000D02*
X173044600Y-106132100D01*
X187987500Y-120199999D02*
X187020000Y-120199999D01*
X179300000Y-125450001D02*
X179300000Y-125700000D01*
X173352550Y-129290000D02*
X173352550Y-130792050D01*
X185415000Y-121689999D02*
X185415000Y-120099999D01*
X185867500Y-120199999D02*
X185415000Y-119747499D01*
X185450000Y-121724999D02*
X185415000Y-121689999D01*
X177600000Y-101500000D02*
X174000000Y-97900000D01*
X185415000Y-120099999D02*
X185415000Y-119747499D01*
X175200000Y-116100000D02*
X173400000Y-116100000D01*
X163890000Y-71160000D02*
X163900000Y-71150000D01*
X164600000Y-119350000D02*
X164600000Y-119362500D01*
X163350000Y-100887500D02*
X164700000Y-100887500D01*
X166425000Y-119362500D02*
X164600000Y-119362500D01*
X165787500Y-118162500D02*
X164600000Y-119350000D01*
X163900000Y-71150000D02*
X163900000Y-67600000D01*
X163850000Y-119362500D02*
X163662500Y-119175000D01*
X164700000Y-100887500D02*
X167312500Y-103500000D01*
X163900000Y-67600000D02*
X163015000Y-66715000D01*
X155300000Y-100887500D02*
X163350000Y-100887500D01*
X164600000Y-119362500D02*
X163850000Y-119362500D01*
X163015000Y-66715000D02*
X158750000Y-66715000D01*
X165060000Y-66070000D02*
X164435000Y-65445000D01*
X163850000Y-127300000D02*
X160912500Y-127300000D01*
X166450000Y-127300000D02*
X166800000Y-126950000D01*
X164435000Y-65445000D02*
X158750000Y-65445000D01*
X166168750Y-109606250D02*
X166168750Y-108193750D01*
X165537500Y-108975000D02*
X166168750Y-109606250D01*
X165662500Y-131025000D02*
X165662500Y-129112500D01*
X165150000Y-72080000D02*
X165060000Y-71990000D01*
X166168750Y-108193750D02*
X166150000Y-108175000D01*
X165662500Y-129112500D02*
X163850000Y-127300000D01*
X165150000Y-72150000D02*
X165150000Y-72080000D01*
X165060000Y-71990000D02*
X165060000Y-66070000D01*
X163912500Y-108975000D02*
X165537500Y-108975000D01*
X163850000Y-127300000D02*
X166450000Y-127300000D01*
X160825000Y-131025000D02*
X160800000Y-131000000D01*
X163837500Y-131025000D02*
X160825000Y-131025000D01*
X160949998Y-133050000D02*
X160800000Y-132900002D01*
X163862500Y-133050000D02*
X160949998Y-133050000D01*
X146082500Y-97900000D02*
X146022500Y-97840000D01*
X149587500Y-97900000D02*
X146082500Y-97900000D01*
X149587500Y-97900000D02*
X149587500Y-104837500D01*
X149587500Y-104837500D02*
X149600000Y-104850000D01*
X149510000Y-106840000D02*
X149600000Y-106750000D01*
X140722500Y-107940000D02*
X142522500Y-109740000D01*
X145522500Y-109740000D02*
X148422500Y-106840000D01*
X142072500Y-96890000D02*
X140722500Y-98240000D01*
X145402500Y-106840000D02*
X149510000Y-106840000D01*
X149550000Y-106700000D02*
X149600000Y-106750000D01*
X142522500Y-109740000D02*
X145522500Y-109740000D01*
X148422500Y-106840000D02*
X148440000Y-106840000D01*
X140722500Y-98240000D02*
X140722500Y-107940000D01*
X143822500Y-96890000D02*
X142072500Y-96890000D01*
X160599998Y-105600000D02*
X160500000Y-105500002D01*
X165587500Y-105600000D02*
X160599998Y-105600000D01*
X160600000Y-103500000D02*
X160500000Y-103600000D01*
X165487500Y-103500000D02*
X160600000Y-103500000D01*
X165790000Y-121549999D02*
X166062501Y-121549999D01*
X166062501Y-121549999D02*
X166425000Y-121187500D01*
D10*
X158218000Y-67985000D02*
X158750000Y-67985000D01*
X138175000Y-122000000D02*
X138175000Y-119325000D01*
X157000000Y-69203000D02*
X158218000Y-67985000D01*
X157000000Y-75000000D02*
X157000000Y-69203000D01*
X141087500Y-122500000D02*
X138675000Y-122500000D01*
X135635500Y-126417700D02*
X138175000Y-123878200D01*
X147500000Y-84500000D02*
X157000000Y-75000000D01*
X138175000Y-123878200D02*
X138175000Y-122000000D01*
X138175000Y-119325000D02*
X141000000Y-116500000D01*
X138675000Y-122500000D02*
X138175000Y-122000000D01*
G04 #@! TA.AperFunction,Conductor*
G36*
X173843039Y-123219685D02*
G01*
X173888794Y-123272489D01*
X173900000Y-123324000D01*
X173900000Y-124546101D01*
X173880315Y-124613140D01*
X173827511Y-124658895D01*
X173776000Y-124670101D01*
X172803029Y-124670101D01*
X172803023Y-124670102D01*
X172743416Y-124676509D01*
X172608571Y-124726803D01*
X172608568Y-124726805D01*
X172543832Y-124775267D01*
X172478368Y-124799684D01*
X172469521Y-124800000D01*
X171530479Y-124800000D01*
X171463440Y-124780315D01*
X171456168Y-124775267D01*
X171391431Y-124726805D01*
X171391428Y-124726803D01*
X171256582Y-124676509D01*
X171256583Y-124676509D01*
X171196983Y-124670102D01*
X171196981Y-124670101D01*
X171196973Y-124670101D01*
X171196965Y-124670101D01*
X170224000Y-124670101D01*
X170156961Y-124650416D01*
X170111206Y-124597612D01*
X170100000Y-124546101D01*
X170100000Y-123324000D01*
X170119685Y-123256961D01*
X170172489Y-123211206D01*
X170224000Y-123200000D01*
X173776000Y-123200000D01*
X173843039Y-123219685D01*
G37*
G04 #@! TD.AperFunction*
G04 #@! TA.AperFunction,Conductor*
G36*
X173843039Y-113919685D02*
G01*
X173888794Y-113972489D01*
X173900000Y-114024000D01*
X173900000Y-115196100D01*
X173880315Y-115263139D01*
X173827511Y-115308894D01*
X173776000Y-115320100D01*
X172850479Y-115320100D01*
X172850473Y-115320101D01*
X172790866Y-115326508D01*
X172656021Y-115376802D01*
X172656019Y-115376803D01*
X172591281Y-115425267D01*
X172525817Y-115449684D01*
X172516970Y-115450000D01*
X171577930Y-115450000D01*
X171510891Y-115430315D01*
X171503619Y-115425267D01*
X171438880Y-115376803D01*
X171438878Y-115376802D01*
X171304032Y-115326508D01*
X171304033Y-115326508D01*
X171244433Y-115320101D01*
X171244431Y-115320100D01*
X171244423Y-115320100D01*
X171244415Y-115320100D01*
X170324000Y-115320100D01*
X170256961Y-115300415D01*
X170211206Y-115247611D01*
X170200000Y-115196100D01*
X170200000Y-114024000D01*
X170219685Y-113956961D01*
X170272489Y-113911206D01*
X170324000Y-113900000D01*
X173776000Y-113900000D01*
X173843039Y-113919685D01*
G37*
G04 #@! TD.AperFunction*
M02*
