G04 #@! TF.GenerationSoftware,KiCad,Pcbnew,9.0.0*
G04 #@! TF.CreationDate,2025-10-02T18:22:05-07:00*
G04 #@! TF.ProjectId,sweatyHands_sch,73776561-7479-4486-916e-64735f736368,rev?*
G04 #@! TF.SameCoordinates,Original*
G04 #@! TF.FileFunction,Copper,L4,Bot*
G04 #@! TF.FilePolarity,Positive*
%FSLAX46Y46*%
G04 Gerber Fmt 4.6, Leading zero omitted, Abs format (unit mm)*
G04 Created by KiCad (PCBNEW 9.0.0) date 2025-10-02 18:22:05*
%MOMM*%
%LPD*%
G01*
G04 APERTURE LIST*
G04 #@! TA.AperFunction,ComponentPad*
%ADD10C,1.701800*%
G04 #@! TD*
G04 #@! TA.AperFunction,ComponentPad*
%ADD11C,3.352800*%
G04 #@! TD*
G04 #@! TA.AperFunction,ComponentPad*
%ADD12C,1.752600*%
G04 #@! TD*
G04 #@! TA.AperFunction,ComponentPad*
%ADD13C,1.828800*%
G04 #@! TD*
G04 #@! TA.AperFunction,ComponentPad*
%ADD14O,2.500000X5.000000*%
G04 #@! TD*
G04 #@! TA.AperFunction,ComponentPad*
%ADD15O,2.250000X4.500000*%
G04 #@! TD*
G04 #@! TA.AperFunction,ComponentPad*
%ADD16O,4.500000X2.250000*%
G04 #@! TD*
G04 #@! TA.AperFunction,ComponentPad*
%ADD17C,0.800000*%
G04 #@! TD*
G04 #@! TA.AperFunction,ComponentPad*
%ADD18C,6.400000*%
G04 #@! TD*
G04 #@! TA.AperFunction,ComponentPad*
%ADD19C,0.499999*%
G04 #@! TD*
G04 #@! TA.AperFunction,ComponentPad*
%ADD20R,1.700000X1.700000*%
G04 #@! TD*
G04 #@! TA.AperFunction,ComponentPad*
%ADD21O,1.700000X1.700000*%
G04 #@! TD*
G04 #@! TA.AperFunction,HeatsinkPad*
%ADD22O,1.800000X0.900000*%
G04 #@! TD*
G04 #@! TA.AperFunction,HeatsinkPad*
%ADD23O,1.500000X0.900000*%
G04 #@! TD*
G04 #@! TA.AperFunction,HeatsinkPad*
%ADD24C,0.600000*%
G04 #@! TD*
G04 #@! TA.AperFunction,ViaPad*
%ADD25C,0.600000*%
G04 #@! TD*
G04 #@! TA.AperFunction,Conductor*
%ADD26C,0.406400*%
G04 #@! TD*
G04 #@! TA.AperFunction,Conductor*
%ADD27C,0.254000*%
G04 #@! TD*
G04 #@! TA.AperFunction,Conductor*
%ADD28C,0.200000*%
G04 #@! TD*
G04 #@! TA.AperFunction,Conductor*
%ADD29C,0.304800*%
G04 #@! TD*
G04 #@! TA.AperFunction,Conductor*
%ADD30C,0.284000*%
G04 #@! TD*
G04 APERTURE END LIST*
D10*
X135635500Y-126417700D03*
X135635500Y-123928500D03*
X135635500Y-121439300D03*
D11*
X128625100Y-128322700D03*
X128625100Y-119534300D03*
D12*
X154790000Y-141390000D03*
X159790000Y-141390000D03*
X164790000Y-141390000D03*
D13*
X144028550Y-141816100D03*
X144028550Y-136736100D03*
X133928550Y-141716100D03*
X133928550Y-136636100D03*
D14*
X190900000Y-126499999D03*
D15*
X196900000Y-126499999D03*
D16*
X193900000Y-121799999D03*
D17*
X192900000Y-141300000D03*
X193602944Y-139602944D03*
X193602944Y-142997056D03*
X195300000Y-138900000D03*
D18*
X195300000Y-141300000D03*
D17*
X195300000Y-143700000D03*
X196997056Y-139602944D03*
X196997056Y-142997056D03*
X197700000Y-141300000D03*
D19*
X184750000Y-112700000D03*
X186050000Y-112700000D03*
X187350000Y-112700000D03*
X184750000Y-111399998D03*
X186050000Y-111399998D03*
X187350000Y-111399998D03*
D20*
X128300000Y-97120000D03*
D21*
X130840000Y-97120000D03*
X128300000Y-99660000D03*
X130840000Y-99660000D03*
X128300000Y-102200000D03*
X130840000Y-102200000D03*
X128300000Y-104740000D03*
X130840000Y-104740000D03*
X128300000Y-107280000D03*
X130840000Y-107280000D03*
X128300000Y-109820000D03*
X130840000Y-109820000D03*
D17*
X119300000Y-48800000D03*
X120002944Y-47102944D03*
X120002944Y-50497056D03*
X121700000Y-46400000D03*
D18*
X121700000Y-48800000D03*
D17*
X121700000Y-51200000D03*
X123397056Y-47102944D03*
X123397056Y-50497056D03*
X124100000Y-48800000D03*
D22*
X197140000Y-69110000D03*
D23*
X192820000Y-67840000D03*
X192820000Y-58540000D03*
D22*
X197140000Y-57270000D03*
D20*
X195350000Y-77210000D03*
D21*
X195350000Y-79750000D03*
X195350000Y-82290000D03*
X195350000Y-84830000D03*
D17*
X119300000Y-141300000D03*
X120002944Y-139602944D03*
X120002944Y-142997056D03*
X121700000Y-138900000D03*
D18*
X121700000Y-141300000D03*
D17*
X121700000Y-143700000D03*
X123397056Y-139602944D03*
X123397056Y-142997056D03*
X124100000Y-141300000D03*
D24*
X147110000Y-59880000D03*
X147110000Y-61280000D03*
X147810000Y-59180000D03*
X147810000Y-60580000D03*
X147810000Y-61980000D03*
X148485000Y-59880000D03*
X148485000Y-61280000D03*
X149210000Y-59180000D03*
X149210000Y-60580000D03*
X149210000Y-61980000D03*
X149910000Y-59880000D03*
X149910000Y-61280000D03*
D17*
X192900000Y-48800000D03*
X193602944Y-47102944D03*
X193602944Y-50497056D03*
X195300000Y-46400000D03*
D18*
X195300000Y-48800000D03*
D17*
X195300000Y-51200000D03*
X196997056Y-47102944D03*
X196997056Y-50497056D03*
X197700000Y-48800000D03*
D25*
X133172500Y-99402500D03*
X133420000Y-102200000D03*
X133465000Y-104335000D03*
X125690000Y-104670000D03*
X124485000Y-100925000D03*
X125365000Y-99265000D03*
X125840000Y-98140000D03*
X150510000Y-126150000D03*
X154210000Y-125510000D03*
X156110000Y-125490000D03*
X175880000Y-109780000D03*
X174690000Y-128980000D03*
X168690000Y-132680000D03*
X170460000Y-117600000D03*
X168940000Y-129210000D03*
X149140000Y-117240000D03*
X173150000Y-68560000D03*
X163690000Y-74800000D03*
X132560000Y-57200000D03*
X166290000Y-67200000D03*
X168200000Y-65985000D03*
X182370000Y-70210000D03*
X188030000Y-116640000D03*
X133740000Y-69520000D03*
X139530000Y-54560000D03*
X181630000Y-91090000D03*
X182280000Y-95460000D03*
X181010000Y-121070000D03*
X171810000Y-84650000D03*
X187920000Y-58820000D03*
X186900000Y-71530000D03*
X153450000Y-122120000D03*
X154140000Y-112730000D03*
X153490000Y-131450000D03*
X157690000Y-87130000D03*
X165300000Y-87880000D03*
X179600000Y-132130000D03*
X143110000Y-73220000D03*
X191870000Y-70160000D03*
X189540000Y-58630000D03*
X174000000Y-60200000D03*
X176300000Y-80800000D03*
X180000000Y-63600000D03*
X167852500Y-53590000D03*
X127300000Y-82900000D03*
X178200000Y-52700000D03*
X178500000Y-89700000D03*
X172600000Y-90700000D03*
X185415000Y-107449999D03*
X137700000Y-55500000D03*
X192125000Y-73550000D03*
X175200000Y-52700000D03*
X136000000Y-57700000D03*
X188737500Y-100199999D03*
X164120000Y-90410000D03*
X184290000Y-61200000D03*
X185532500Y-72750000D03*
X158900000Y-83300000D03*
X127400000Y-88500000D03*
X177190594Y-64366021D03*
X190730000Y-118637500D03*
X185100000Y-133799999D03*
X179700000Y-85550000D03*
X133565000Y-107245000D03*
X164600000Y-83500000D03*
X186650000Y-103499999D03*
X181400000Y-80800000D03*
X189517500Y-68235000D03*
X170500000Y-90700000D03*
X143610000Y-102440000D03*
X195350000Y-74075000D03*
X189950000Y-71200000D03*
X161000000Y-52700000D03*
X128300000Y-112100000D03*
X134800000Y-54700000D03*
X175400000Y-85400000D03*
X130840000Y-112100000D03*
X180000000Y-62600000D03*
X192350000Y-97449999D03*
X184190000Y-65150000D03*
X188700000Y-97299999D03*
X179800000Y-50000000D03*
X174650000Y-72750000D03*
X174700000Y-90700000D03*
X192025000Y-88350000D03*
X156450000Y-85000000D03*
X192125000Y-78575000D03*
X169100000Y-59900000D03*
X128085000Y-54015000D03*
X141100000Y-78700000D03*
X176100000Y-66300000D03*
X176050000Y-62100000D03*
X145500000Y-117500000D03*
X161970000Y-54015000D03*
X162010000Y-73090000D03*
X159360000Y-79450000D03*
X134130000Y-57200000D03*
X169140000Y-111000000D03*
X169150000Y-115450000D03*
X177525000Y-77600000D03*
X163175000Y-55325000D03*
X177600000Y-76475000D03*
X164300000Y-60075000D03*
X121400000Y-62800000D03*
X133705000Y-62905000D03*
X120400000Y-64300000D03*
X133725000Y-64175000D03*
X134675000Y-66725000D03*
X129250000Y-79425000D03*
X161170000Y-62920000D03*
X161170000Y-76090000D03*
X122400000Y-61600000D03*
X133635000Y-61635000D03*
X133725000Y-65450000D03*
X119200000Y-65700000D03*
X182620000Y-61760000D03*
X181300000Y-65380000D03*
X171400000Y-66250000D03*
X171400000Y-71250000D03*
X171100000Y-73200000D03*
X165100000Y-76800000D03*
X136900000Y-60400000D03*
X175900000Y-69700000D03*
X162850000Y-61710000D03*
X162850000Y-73450000D03*
X183559000Y-64329000D03*
X181280000Y-60920000D03*
X156300000Y-115700000D03*
X154300000Y-115700000D03*
X132400000Y-67100000D03*
X165675000Y-82000000D03*
X163350000Y-100887500D03*
X165787500Y-118162500D03*
X163890000Y-71160000D03*
X166150000Y-108175000D03*
X165150000Y-72150000D03*
X166800000Y-126950000D03*
X147500000Y-84500000D03*
X141000000Y-116500000D03*
D26*
X130840000Y-109820000D02*
X130840000Y-112100000D01*
X128300000Y-109820000D02*
X128300000Y-112100000D01*
X125690000Y-104670000D02*
X128300000Y-107280000D01*
X124485000Y-100925000D02*
X128300000Y-104740000D01*
X125365000Y-99265000D02*
X128300000Y-102200000D01*
X128300000Y-99660000D02*
X127360000Y-99660000D01*
X127360000Y-99660000D02*
X125840000Y-98140000D01*
X128300000Y-97120000D02*
X130840000Y-97120000D01*
X130840000Y-99660000D02*
X132915000Y-99660000D01*
X132915000Y-99660000D02*
X133172500Y-99402500D01*
X130840000Y-102200000D02*
X133420000Y-102200000D01*
X130840000Y-104740000D02*
X133060000Y-104740000D01*
X133060000Y-104740000D02*
X133465000Y-104335000D01*
X130840000Y-107280000D02*
X133530000Y-107280000D01*
X133530000Y-107280000D02*
X133565000Y-107245000D01*
X154230000Y-125490000D02*
X154210000Y-125510000D01*
X156110000Y-125490000D02*
X154230000Y-125490000D01*
X132400000Y-70860000D02*
X133740000Y-69520000D01*
X132400000Y-74260000D02*
X132400000Y-70860000D01*
X132400000Y-67100000D02*
X132400000Y-74260000D01*
D27*
X176711873Y-60200000D02*
X180000000Y-63488127D01*
X180000000Y-77100000D02*
X176300000Y-80800000D01*
X180000000Y-63600000D02*
X180000000Y-77100000D01*
X174000000Y-60200000D02*
X176711873Y-60200000D01*
X144000000Y-109000000D02*
X144000000Y-117000000D01*
X137000000Y-121500000D02*
X137000000Y-122564000D01*
X144000000Y-117000000D02*
X140500000Y-120500000D01*
X137000000Y-122564000D02*
X135635500Y-123928500D01*
X142000000Y-104050000D02*
X142000000Y-107000000D01*
X142000000Y-107000000D02*
X144000000Y-109000000D01*
X138000000Y-120500000D02*
X137000000Y-121500000D01*
X140500000Y-120500000D02*
X138000000Y-120500000D01*
X143610000Y-102440000D02*
X142000000Y-104050000D01*
D26*
X176050000Y-62100000D02*
X176050000Y-66250000D01*
D28*
X145500000Y-117500000D02*
X145500000Y-116500000D01*
X154000000Y-108000000D02*
X154000000Y-87450000D01*
X145500000Y-116500000D02*
X154000000Y-108000000D01*
X154000000Y-87450000D02*
X156450000Y-85000000D01*
D26*
X162020000Y-72180000D02*
X162020000Y-54065000D01*
X162020000Y-54065000D02*
X161970000Y-54015000D01*
X162010000Y-72190000D02*
X162020000Y-72180000D01*
X162010000Y-73090000D02*
X162010000Y-72190000D01*
D29*
X135400000Y-58470000D02*
X134130000Y-57200000D01*
X143150000Y-79450000D02*
X135400000Y-71700000D01*
X135400000Y-71700000D02*
X135400000Y-58470000D01*
X159360000Y-79450000D02*
X143150000Y-79450000D01*
D26*
X169150000Y-115450000D02*
X169150000Y-111010000D01*
X169150000Y-111010000D02*
X169140000Y-111000000D01*
X163560000Y-55710000D02*
X163175000Y-55325000D01*
X171891006Y-77600000D02*
X163560000Y-69268994D01*
X177525000Y-77600000D02*
X171891006Y-77600000D01*
X163560000Y-69268994D02*
X163560000Y-55710000D01*
X171675000Y-76475000D02*
X171625000Y-76475000D01*
X171625000Y-76475000D02*
X164300000Y-69150000D01*
X171675000Y-76475000D02*
X177600000Y-76475000D01*
X164300000Y-69150000D02*
X164300000Y-60075000D01*
X133705000Y-62905000D02*
X133700000Y-62900000D01*
X133700000Y-62900000D02*
X121500000Y-62900000D01*
X121500000Y-62900000D02*
X121400000Y-62800000D01*
X120520000Y-64180000D02*
X120400000Y-64300000D01*
X133725000Y-64175000D02*
X133485000Y-64175000D01*
X133480000Y-64180000D02*
X120520000Y-64180000D01*
X133485000Y-64175000D02*
X133480000Y-64180000D01*
X129250000Y-69061873D02*
X132139873Y-66172000D01*
X129250000Y-79425000D02*
X129250000Y-69061873D01*
X134122000Y-66172000D02*
X134675000Y-66725000D01*
X132139873Y-66172000D02*
X134122000Y-66172000D01*
X161170000Y-76090000D02*
X161170000Y-62920000D01*
X133600000Y-61600000D02*
X122400000Y-61600000D01*
X133635000Y-61635000D02*
X133600000Y-61600000D01*
X119200000Y-65700000D02*
X119450000Y-65450000D01*
X119450000Y-65450000D02*
X133725000Y-65450000D01*
D30*
X181300000Y-65380000D02*
X181300000Y-63080000D01*
X181300000Y-63080000D02*
X182620000Y-61760000D01*
D27*
X171400000Y-66250000D02*
X171400000Y-71250000D01*
D29*
X144300000Y-78300000D02*
X144300000Y-78400000D01*
X136900000Y-60400000D02*
X136900000Y-70900000D01*
X163500000Y-78400000D02*
X165100000Y-76800000D01*
X136900000Y-70900000D02*
X144300000Y-78300000D01*
X144300000Y-78400000D02*
X163500000Y-78400000D01*
X171100000Y-73200000D02*
X174600000Y-69700000D01*
X174600000Y-69700000D02*
X175900000Y-69700000D01*
D26*
X162850000Y-73450000D02*
X162850000Y-72650000D01*
X162840000Y-61720000D02*
X162850000Y-61710000D01*
X162850000Y-72650000D02*
X162840000Y-72640000D01*
X162840000Y-72640000D02*
X162840000Y-61720000D01*
D30*
X183490000Y-64074000D02*
X183263000Y-63847000D01*
X183263000Y-63847000D02*
X183263000Y-61493660D01*
X183559000Y-64329000D02*
X183490000Y-64260000D01*
X182689340Y-60920000D02*
X181280000Y-60920000D01*
X183490000Y-64260000D02*
X183490000Y-64074000D01*
X183263000Y-61493660D02*
X182689340Y-60920000D01*
D26*
X154300000Y-115700000D02*
X156300000Y-115700000D01*
X132400000Y-74260000D02*
X132400000Y-78400000D01*
X132400000Y-78400000D02*
X136000000Y-82000000D01*
X136000000Y-82000000D02*
X165675000Y-82000000D01*
X166379200Y-74649200D02*
X163890000Y-72160000D01*
X165350000Y-107175000D02*
X163325000Y-105150000D01*
X163325000Y-105150000D02*
X163325000Y-100912500D01*
X163350000Y-100887500D02*
X166379200Y-97858300D01*
X166379200Y-97858300D02*
X166379200Y-74649200D01*
X165787500Y-118162500D02*
X165350000Y-117725000D01*
X165350000Y-117725000D02*
X165350000Y-107175000D01*
X163890000Y-72160000D02*
X163890000Y-71160000D01*
X165150000Y-72150000D02*
X169040000Y-76040000D01*
X168300000Y-109120000D02*
X168300000Y-109125000D01*
X168300000Y-109125000D02*
X167350000Y-108175000D01*
X169040000Y-108380000D02*
X168300000Y-109120000D01*
X167350000Y-108175000D02*
X166150000Y-108175000D01*
X169040000Y-76040000D02*
X169040000Y-108380000D01*
X168300000Y-125450000D02*
X168300000Y-109125000D01*
X166800000Y-126950000D02*
X168300000Y-125450000D01*
D28*
X139000000Y-108500000D02*
X139000000Y-94000000D01*
X139000000Y-94000000D02*
X139000000Y-93000000D01*
X141000000Y-116500000D02*
X141000000Y-110500000D01*
X139500000Y-109000000D02*
X139000000Y-108500000D01*
X139000000Y-93000000D02*
X147250000Y-84750000D01*
X141000000Y-110500000D02*
X139500000Y-109000000D01*
M02*
