M48
; DRILL file {KiCad 9.0.0} date 2025-10-02T18:24:41-0700
; FORMAT={-:-/ absolute / metric / decimal}
; #@! TF.CreationDate,2025-10-02T18:24:41-07:00
; #@! TF.GenerationSoftware,Kicad,Pcbnew,9.0.0
; #@! TF.FileFunction,Plated,1,4,PTH
FMAT,2
METRIC
; #@! TA.AperFunction,Plated,PTH,ComponentDrill
T1C0.200
; #@! TA.AperFunction,Plated,PTH,ComponentDrill
T2C0.203
; #@! TA.AperFunction,Plated,PTH,ViaDrill
T3C0.300
; #@! TA.AperFunction,Plated,PTH,ViaDrill
T4C0.400
; #@! TA.AperFunction,Plated,PTH,ComponentDrill
T5C0.500
; #@! TA.AperFunction,Plated,PTH,ComponentDrill
T6C0.600
; #@! TA.AperFunction,Plated,PTH,ComponentDrill
T7C1.000
; #@! TA.AperFunction,Plated,PTH,ComponentDrill
T8C1.194
; #@! TA.AperFunction,Plated,PTH,ComponentDrill
T9C1.245
; #@! TA.AperFunction,Plated,PTH,ComponentDrill
T10C1.321
; #@! TA.AperFunction,Plated,PTH,ComponentDrill
T11C2.845
; #@! TA.AperFunction,Plated,PTH,ComponentDrill
T12C3.200
%
G90
G05
T1
X147.11Y-59.88
X147.11Y-61.28
X147.81Y-59.18
X147.81Y-60.58
X147.81Y-61.98
X148.485Y-59.88
X148.485Y-61.28
X149.21Y-59.18
X149.21Y-60.58
X149.21Y-61.98
X149.91Y-59.88
X149.91Y-61.28
T2
X184.75Y-111.4
X184.75Y-112.7
X186.05Y-111.4
X186.05Y-112.7
X187.35Y-111.4
X187.35Y-112.7
T3
X124.485Y-100.925
X125.365Y-99.265
X125.69Y-104.67
X125.84Y-98.14
X132.56Y-57.2
X133.172Y-99.402
X133.42Y-102.2
X133.465Y-104.335
X133.74Y-69.52
X139.53Y-54.56
X143.11Y-73.22
X149.14Y-117.24
X150.51Y-126.15
X153.45Y-122.12
X153.49Y-131.45
X154.14Y-112.73
X154.21Y-125.51
X156.11Y-125.49
X157.69Y-87.13
X163.69Y-74.8
X165.3Y-87.88
X166.29Y-67.2
X168.2Y-65.985
X168.69Y-132.68
X168.94Y-129.21
X170.46Y-117.6
X171.81Y-84.65
X173.15Y-68.56
X174.69Y-128.98
X175.88Y-109.78
X179.6Y-132.13
X181.01Y-121.07
X181.63Y-91.09
X182.28Y-95.46
X182.37Y-70.21
X186.9Y-71.53
X187.92Y-58.82
X188.03Y-116.64
X191.87Y-70.16
T4
X119.2Y-65.7
X120.4Y-64.3
X121.4Y-62.8
X122.4Y-61.6
X127.3Y-82.9
X127.4Y-88.5
X128.085Y-54.015
X128.3Y-112.1
X129.25Y-79.425
X130.84Y-112.1
X132.4Y-67.1
X133.565Y-107.245
X133.635Y-61.635
X133.705Y-62.905
X133.725Y-64.175
X133.725Y-65.45
X134.13Y-57.2
X134.675Y-66.725
X134.8Y-54.7
X136.0Y-57.7
X136.9Y-60.4
X137.7Y-55.5
X141.0Y-116.5
X141.1Y-78.7
X143.61Y-102.44
X145.5Y-117.5
X147.5Y-84.5
X154.3Y-115.7
X156.3Y-115.7
X156.45Y-85.0
X158.9Y-83.3
X159.36Y-79.45
X161.0Y-52.7
X161.17Y-62.92
X161.17Y-76.09
X161.97Y-54.015
X162.01Y-73.09
X162.85Y-61.71
X162.85Y-73.45
X163.175Y-55.325
X163.35Y-100.887
X163.89Y-71.16
X164.12Y-90.41
X164.3Y-60.075
X164.6Y-83.5
X165.1Y-76.8
X165.15Y-72.15
X165.675Y-82.0
X165.787Y-118.162
X166.15Y-108.175
X166.8Y-126.95
X167.852Y-53.59
X169.1Y-59.9
X169.14Y-111.0
X169.15Y-115.45
X170.5Y-90.7
X171.1Y-73.2
X171.4Y-66.25
X171.4Y-71.25
X172.6Y-90.7
X174.0Y-60.2
X174.65Y-72.75
X174.7Y-90.7
X175.2Y-52.7
X175.4Y-85.4
X175.9Y-69.7
X176.05Y-62.1
X176.1Y-66.3
X176.3Y-80.8
X177.191Y-64.366
X177.525Y-77.6
X177.6Y-76.475
X178.2Y-52.7
X178.5Y-89.7
X179.7Y-85.55
X179.8Y-50.0
X180.0Y-62.6
X180.0Y-63.6
X181.28Y-60.92
X181.3Y-65.38
X181.4Y-80.8
X182.62Y-61.76
X183.559Y-64.329
X184.19Y-65.15
X184.29Y-61.2
X185.1Y-133.8
X185.415Y-107.45
X185.532Y-72.75
X186.65Y-103.5
X188.7Y-97.3
X188.737Y-100.2
X189.517Y-68.235
X189.54Y-58.63
X189.95Y-71.2
X190.73Y-118.637
X192.025Y-88.35
X192.125Y-73.55
X192.125Y-78.575
X192.35Y-97.45
X195.35Y-74.075
T5
X119.3Y-48.8
X119.3Y-141.3
X120.003Y-47.103
X120.003Y-50.497
X120.003Y-139.603
X120.003Y-142.997
X121.7Y-46.4
X121.7Y-51.2
X121.7Y-138.9
X121.7Y-143.7
X123.397Y-47.103
X123.397Y-50.497
X123.397Y-139.603
X123.397Y-142.997
X124.1Y-48.8
X124.1Y-141.3
X192.9Y-48.8
X192.9Y-141.3
X193.603Y-47.103
X193.603Y-50.497
X193.603Y-139.603
X193.603Y-142.997
X195.3Y-46.4
X195.3Y-51.2
X195.3Y-138.9
X195.3Y-143.7
X196.997Y-47.103
X196.997Y-50.497
X196.997Y-139.603
X196.997Y-142.997
X197.7Y-48.8
X197.7Y-141.3
T7
X128.3Y-97.12
X128.3Y-99.66
X128.3Y-102.2
X128.3Y-104.74
X128.3Y-107.28
X128.3Y-109.82
X130.84Y-97.12
X130.84Y-99.66
X130.84Y-102.2
X130.84Y-104.74
X130.84Y-107.28
X130.84Y-109.82
X195.35Y-77.21
X195.35Y-79.75
X195.35Y-82.29
X195.35Y-84.83
T8
X135.636Y-121.439
X135.636Y-123.928
X135.636Y-126.418
T9
X154.79Y-141.39
X159.79Y-141.39
X164.79Y-141.39
T10
X133.929Y-136.636
X133.929Y-141.716
X144.029Y-136.736
X144.029Y-141.816
T11
X128.625Y-119.534
X128.625Y-128.323
T12
X121.7Y-48.8
X121.7Y-141.3
X195.3Y-48.8
X195.3Y-141.3
T6
X192.52Y-58.54G85X193.12Y-58.54
G05
X192.52Y-67.84G85X193.12Y-67.84
G05
X196.69Y-57.27G85X197.59Y-57.27
G05
X196.69Y-69.11G85X197.59Y-69.11
G05
T7
X190.9Y-125.25G85X190.9Y-127.75
G05
X192.9Y-121.8G85X194.9Y-121.8
G05
X196.9Y-125.5G85X196.9Y-127.5
G05
M30
